<?xml version="1.0" encoding="utf-8"?>
<!-- Generator: Adobe Illustrator 21.0.2, SVG Export Plug-In . SVG Version: 6.00 Build 0)  -->
<svg version="1.1" id="Layer_1" xmlns="http://www.w3.org/2000/svg" xmlns:xlink="http://www.w3.org/1999/xlink" x="0px" y="0px"
	 viewBox="0 0 400 400" style="enable-background:new 0 0 400 400;" xml:space="preserve">
<style type="text/css">
	.st0{fill:#37C9A2;}
</style>
<path class="st0" d="M35.6,3.5c-1.3,1.6-7.7,5.7-14.7,9.3C14.4,16,7.5,20,5.9,21.3s-3.3,2.4-4,2s-1.3,2.4-1.3,6.1
	c0,5.3,0,6.1,0.9,3.5C3.5,26,7.2,22.3,16.1,18c4.7-2.3,12.5-6.7,17.3-9.7l11.3-7.1c2.3-1.3,2-1.3-2.1-1.3c-3.2,0.3-5.7,1.3-7.1,3.2
	L35.6,3.5z M80.9,3.2C82,8.5,76,12,64.9,12c-8.9,0-9.3,0-15.3,5.9c-7.2,6.7-10,8-20,9.3c-18.3,2.7-19.7,17.7-3.2,29.3
	c7.5,5.3,12.8,5.3,20.3-0.3c6.7-4.9,11.3-5.3,13.3-1.6c1.3,2.3,0.8,4.3-1.7,9.9c-4,8.4-9.3,12.8-16.3,12.8c-6,0-11.3-2.7-22-11.3
	c-4.8-4-11.2-8.3-14.3-9.7c-5.6-2.7-5.7-2.7-5.7,0c0,1.3,0.7,2,1.7,1.6c2-0.5,12.3,5.6,20.9,12.8c13.3,11.3,24,12,32.8,2.4
	c7.2-7.7,9.6-19.7,4.5-22.4c-4.3-2.3-7.2-1.6-14.1,3.3c-8,5.6-10.7,5.7-17.7,0.9c-9.3-6.3-12.8-13.9-9.3-20.3c1.3-2.7,6.7-4.7,16-6
	c7.7-1.3,12.4-3.7,15.2-8c3.1-4.8,9.7-7.3,18.7-7.3c9.3,0,12-1.3,15.3-8L86.4,0h-3.1C80.9,0,80.7,0.5,80.9,3.2z M104,3.3
	c5.7,4.3,13.1,6.3,20.9,5.7c5.1-0.3,6.7-1.1,9.3-4.8c3.5-4.3,3.5-4.3,0.5-4.3c-1.3,0-2.7,0.5-2.1,1.3c0.4,0.4,0,2.1-1.3,3.5
	c-1.3,2-3.2,2.7-8,2.4c-7.5-0.3-17.3-4-16-5.9C108,0.5,106.5,0,104,0h-4.5L104,3.3z M147.3,4.9c0.9,2.7,3.2,6.3,5.1,7.6
	c3.2,2.4,3.6,2.4,6.7,0.3c2-1.3,3.6-2.9,3.6-4c0-0.7,0.9-3.1,1.9-5.3c1.9-3.2,1.7-3.5-0.8-3.5c-1.6,0-2.4,0.7-2,1.7
	c1.3,3.1-2.7,10.3-5.6,10.3c-3.3,0-7.2-5.7-6.3-9.3c0.5-1.9,0-2.7-1.7-2.7c-2.1,0-2.1,0.4-0.7,4.9L147.3,4.9z"/>
<path class="st0" d="M174.7,2.9c5.3,13.9,4.4,23.5-2.9,27.2c-5.3,2.7-8.9,1.6-16.5-4.9l-6.4-5.6l-10.7,0.5
	c-8.7,0.5-13.1,1.6-22.1,5.3c-6.3,2.7-13.3,5.1-15.7,5.1c-2.4,0-7.7-1.9-12-4c-9.6-5.3-17.7-5.1-22.7,0.7
	c-7.5,8.7-1.3,19.2,12.5,21.9c15.2,2.9,18.3,5.6,26.9,20.8c5.6,9.9,9.3,12.4,15.3,10.7c3.6-0.7,7.6-6.7,7.6-10.9
	c0-1.3-2.4-6-5.3-10.4c-9.1-13.5-6.4-21.9,6.7-21.9c8.5,0,12.3,3.5,15.5,14c2.9,10.4,1.9,16.3-5.1,27.7c-4.3,7.2-5.7,10.9-5.7,15.1
	c0,7.2,3.5,11.2,9.7,11.2c7.2,0,13.3-7.2,19.5-23.1c5.3-14.3,9.3-19.2,19.3-24c13.1-6.9,17.7-17.3,12-27.6c-1.3-2.7-2.7-6.7-3.2-8.7
	c-0.9-4.5,2.7-19.3,4.9-20.9c0.9-0.7,0.3-1.1-1.7-1.1c-2.7,0-3.3,0.7-3.6,3.6c0,2.1-0.7,7.7-1.3,12.7c-0.5,7.7-0.3,9.6,2.1,13.3
	c6,10.1,2.1,19.6-10.7,26.7c-10.4,5.3-14.7,10.7-20,24.3c-5.3,14-8.3,18.7-13.3,21.3c-4,2.3-4.5,2.3-8-0.3
	c-5.6-4.3-5.3-9.9,1.9-21.6c7.6-12.5,8.5-18,4.8-29.6c-4-12.4-8.4-16.3-18.7-15.5c-14.1,1.3-17.3,11.5-7.5,25.3
	c2.7,4,4.8,8.7,4.8,10.7c0,6.7-9.3,10.4-13.6,5.3c-1.1-1.3-3.7-5.3-5.7-9.3C100,56.3,92.4,49.9,83.1,48c-11.7-2.3-15.2-4-17.3-8.3
	c-1.9-3.3-1.9-4.7-0.5-8c3.3-7.6,12-8.5,23.6-2.4c9.3,5.1,13.3,5.1,26.3-0.7c21.3-9.3,30.7-9.3,40-0.5c4.9,4.5,6.7,5.3,12,5.3
	c4.9,0,6.4-0.7,9.3-4c4-4.7,4.7-13.3,2-21.3c-1.3-3.1-1.3-4.5,0-6c1.3-1.7,1.1-2-1.9-2c-3.1,0-3.3,0.4-2.3,2.9L174.7,2.9z
	 M239.1,3.5c6.7,8,9.3,9.9,13.9,9.9c4.8,0,7.7-2.7,10.7-9.3c1.3-4,1.3-4-1.6-4c-2.4,0-2.9,0.5-2.4,2.7c2,7.7-8.8,11.3-14.3,4.4
	c-1.3-2-2.4-4.4-2.1-5.3c0.5-1.3-0.5-1.7-3.2-1.7h-3.7l2.7,3.5L239.1,3.5z M320.4,2.7c1.9,1.3,4.4,2.7,5.6,2.7
	c1.3,0,3.7-1.3,5.6-2.7c2.7-2,2.9-2.7,1.3-2.7c-1.3,0-3.5,0.8-4.9,1.6c-2,1.3-2.9,1.3-4.3,0c-0.8-0.8-2.7-1.6-4-1.6
	C317.3,0,317.3,0.3,320.4,2.7z M344.4,2c1.1,1.1,3.3,4.7,5.1,8c2.7,5.7,2.9,7.1,1.6,12.3c-3.2,11.7-1.6,15.1,6.9,15.1
	c4.8,0,6.1-0.8,12.7-8c4-4.3,9.7-8.9,12.8-10.4c7.1-3.6,8.8-5.9,9.9-13.1c0.9-5.6,0.8-5.9-2.7-5.9c-1.7,0-2.7,0.5-1.9,1.1
	c2.4,1.6,3.2,5.3,1.6,8.8c-0.8,1.9-4.9,5.3-9.3,7.5c-4.9,2.7-9.3,6.4-12,9.7c-4.5,6.7-9.3,9.3-13.7,8.4c-3.5-0.9-4.8-4.3-3.2-8
	c2.1-5.3,1.3-15.5-1.3-20.7c-1.3-2.7-2.1-5.3-1.7-5.9c0.5-0.4-0.8-0.8-2.7-0.8c-3.3,0-3.6,0.3-1.9,2L344.4,2z"/>
<path class="st0" d="M282.7,10.7c-1.3,1.3-2.7,4.4-2.7,6.7c0,3.1,1.3,4.9,7.7,9.9c4,3.3,10.7,8.3,14.7,10.9
	c8.7,5.7,11.3,11.1,11.5,22.9c0,7.6-0.3,8.8-3.5,11.6c-3.2,2.7-4.4,2.9-15.3,2.4c-6.4-0.4-14.4,0-17.6,0.7
	c-6.3,1.6-11.6,0.3-12.9-3.2s1.6-4.9,13.6-6.7c6.4-0.9,12.4-2.4,13.3-3.3c2.7-2.4,2.7-9.9-0.5-12.5c-6.3-5.7-17.7-5.1-32,2.1
	c-10.7,5.3-14.7,10.7-14.7,20c0,5.6,0.5,6.7,5.3,10.7c9.6,8.3,11.3,18.7,5.3,30.7c-5.1,9.7-11.5,10.9-26.9,5.1
	c-7.3-2.7-7.7-3.2-8.5-8c-0.5-3.3-2.7-7.7-5.3-10.7c-5.9-7.2-6.7-12-3.2-24.7c4-16,9.3-22.7,20-25.1c6.3-1.6,21.1-8.7,24-11.5
	c1.6-1.6,2.7-4.4,2.7-7.2c0-6.7-3.7-8.8-15.5-8.8c-9.1,0-10-0.3-15.2-4.7c-5.3-4.5-9.6-5.7-12.9-3.6c-2.4,1.3-4.4,8-4.4,14
	c0,6.1-3.2,14-9.1,22.7c-5.7,8.3-8.4,17.3-9.3,30.9l-0.5,12l4.9,6.3c5.9,7.5,6.4,12.4,1.9,16c-3.7,3.1-7.5,2.4-14.7-2.4
	c-10-6.9-25.3-2.9-25.3,6.7c0,6.7,3.3,8.8,14.1,8.8c5.1,0,9.9,0.5,10.7,1.1c3.3,2,4.3,7.5,2.4,13.6c-1.7,6-4.5,30.7-4.5,40.3
	c0,3.3,0.9,6,2.7,8c2.7,2.7,4,2.7,22.4,2.3c21.3-0.7,22.9,0,21.1,7.1c-0.5,2.4-2.4,4-6.7,5.6c-8.4,3.2-12,7.3-12,14.3
	c0,8.9,1.3,12.4,9.1,21.1c4,4.4,7.5,9.7,8,12c0.4,2.4,0.8,10.9,0.8,18.9c0,21.3-2.9,25.3-17.3,24c-10.7-0.8-13.3,1.9-17.3,15.6
	c-4.9,18.7-4.3,22.7,5.7,30.4c8.5,6.7,16.9,14.9,22.7,22.9c5.3,7.2,11.2,9.3,16.3,6.1c4-2.7,4.4-9.1,1.3-18.7
	c-2.1-5.9-2.1-6.7,0.8-14.7c3.2-8.5,3.2-8.8,1.1-19.2c-2.4-11.2-2.3-12.5,2.9-28c2.4-7.5,2.7-10.7,1.9-22.1
	c-1.1-16.8,0.4-20.5,10.1-25.3c9.3-4.9,12-11.2,6.7-16c-2.9-2.7-10.7-2.4-20,1.1c-6.3,2.4-10,1.9-12-1.9c-2-4,0.9-8.8,7.3-12.7
	c6-3.5,8-7.1,9.3-16.9c0.5-4.4,3.6-10.7,10.3-21.7c11.1-18.4,12.4-23.7,7.7-33.1c-4-8.3-2.9-12.3,4.4-15.6c6.4-2.9,15.6-3.5,18-1.1
	c2.1,2.1,2,8.9-0.4,13.1c-2.7,4.9-2.4,9.9,1.1,13.1c3.6,3.5,7.6,3.7,12.9,0.9c5.1-2.7,5.6-4.7,5.7-22.9c0-14.7,0-15.6-3.1-18
	c-2.7-2-4.4-2.4-10.7-1.6c-6.7,0.7-8,0.5-10.7-2c-3.7-3.7-3.5-8.8,0.9-12.8c3.2-3.1,4.5-3.3,10.4-2.7l20.7,1.6
	c14,0.8,14,0.8,17.7-2.7c3.5-3.6,3.6-4.5,3.6-16c0-6.7-0.7-16.3-1.3-21.3c-1.3-10.4-0.8-12,6.1-20c10.3-11.2,0.4-23.7-12-15.5
	c-2.3,1.3-5.7,2.7-7.6,2.7c-3.5,0-5.3-1.3-17.3-10.4c-6.9-5.3-14.4-5.9-18.7-1.6L282.7,10.7z M299.5,13.3c2.3,1.3,5.3,4,6.7,5.3
	c6,6.7,14.7,8.4,20,4c4-2.9,9.9-3.5,12.3-1.1c3.2,3.2,1.7,8.9-4,15.1l-5.3,6l1.6,20.5c1.3,17.3,1.3,20.9,0,24.3
	c-3.7,7.5-12,8.8-30,5.1c-12.7-2.7-18.1-1.7-22.7,3.6c-4.3,5.3-4.3,10.7,0,14.7c3.1,2.9,4.7,3.3,12,3.1c12-0.5,12.7,0.4,12.7,18.1
	c0,12.4-0.4,14.7-2.7,17.9c-3.1,3.7-10.1,4.8-13.1,1.9c-2.1-2.1-2-7.6,0.4-11.7c4.4-7.7,0.3-17.3-7.6-17.3c-6.9,0-15.5,2.7-18.7,6.1
	c-3.6,4-3.7,10.7-0.4,15.7c4.5,6.9,3.2,12.5-7.2,29.9c-7.3,12.4-9.7,17.9-10.9,24.4c-1.3,8.8-2.7,10.7-12,17.7
	c-4,2.9-5.1,4.5-5.1,8.3c0,8.9,7.1,10.9,20.3,5.9c8.8-3.5,14.4-2.1,14.4,3.2c0,3.3-1.3,4.5-10.7,10.7c-8,4.9-9.6,9.9-8.5,26.1
	c0.8,13.1,0.5,14.7-2.7,24.5c-4,10.7-4,12.4-1.3,30.4c0.7,4.4,0.3,8-1.3,11.7c-2.7,6.7-2.7,13.1,0,21.3c2,6.1,2,6.9,0,10
	c-4,6-10.7,4-16-5.1c-1.9-3.1-9.1-10.7-16-16.8c-7.1-6.1-13.3-12.5-13.6-14.3c-0.9-3.5,4-25.3,6.7-28.5c2.7-4,6.7-5.1,14.1-4.4
	c7.1,0.7,8,0.4,12-3.3l4.7-4v-18c-0.3-9.7-0.7-19.5-1.3-21.3c-0.3-2-3.7-6.9-7.3-10.9c-7.6-8.4-10.4-15.7-8.5-23.1
	c1.1-4.3,2.3-5.3,8.4-8.5c4-1.9,8-4.5,8.9-5.9c2.9-4,2.1-9.6-1.6-12c-3.1-2-4.7-2-12.7-0.7c-17.3,2.7-27.7,1.3-30.7-4
	c-1.7-3.2,0.4-28.3,3.5-40.4c2.7-10.3,2.4-13.3-0.7-17.1c-2.1-2.9-3.5-3.3-10.4-2.9c-9.6,0.4-14.4-1.3-15.6-5.1
	c-1.3-4,3.7-9.1,9.6-10.1c3.6-0.7,6.3,0,12.5,3.3c9.7,4.8,16.3,5.3,19.2,1.1c3.5-4.9,2.7-10.4-2.7-16.9c-5.6-7.1-6.4-10.1-5.3-19.1
	c1.3-11.1,4.3-19.5,10.9-30.7c4.7-7.7,6.4-12.4,7.5-19.2c0.8-5.1,1.9-10.4,2.7-12c1.6-4.5,6.7-4,13.1,1.6c5.3,4.5,6,4.7,14.9,4.4
	c8.3-0.4,9.6,0,11.7,2.7c5.3,6.4-0.8,12-20,19.1c-9.7,3.6-13.1,5.3-16.5,9.6c-5.3,6-10.1,21.3-10.1,31.2c0,5.7,0.7,7.7,4.7,12.7
	c2.7,3.3,5.1,8,5.3,10.7c0.7,2.7,1.6,5.3,2.3,6.3c2.3,2.7,22,8.7,26.3,7.7c8-1.7,14.7-12.9,14.7-24.7c0-8.3-2.3-13.1-8.5-17.7
	c-13.7-10.7-1.9-28,22.7-33.1c6.7-1.3,8.4-1.3,12,0.4c9.3,4.8,6.3,12-5.9,13.6c-18.7,2.7-21.6,4.4-16.8,10.9c2.7,3.3,3.6,3.7,10,3.5
	c4-0.3,13.6-0.4,21.3-0.4c7.5,0,14.7-0.7,16-1.3c4-2.1,5.7-8.7,5.1-18.7c-0.8-10.9-2.7-14-12-21.3c-20-14.7-20.4-15.3-20.4-19.3
	c0-2.7,0.9-4.4,3.3-5.6c3.7-1.9,6.7-1.3,12.8,2.4L299.5,13.3z"/>
<path class="st0" d="M211.1,133.9c-6.1,2.7-8,7.6-9.1,24c-1.3,21.3,0.3,22.9,21.1,18.9c6.7-1.3,10.1-2.7,12.9-5.3
	c3.7-3.7,4-4.7,4-13.3c0-18.7-4.3-25.1-17.1-25.7c-4.7-0.3-9.3,0.3-12,1.3L211.1,133.9z M231.1,136.1c3.5,2.1,5.9,8.4,6.7,18.7
	c1.7,15.1-4,20-23.6,20.4c-7.3,0.3-8,0-9.6-3.1c-2.3-4.7-0.3-26.9,2.7-31.5c4.4-6.7,15.7-8.7,23.7-4.4L231.1,136.1z"/>
<path class="st0" d="M216,146.9c-3.3,3.6-3.7,13.3-0.5,16.3c1.1,1.3,4,2.1,6.7,2.1c8.8,0,12.8-11.7,6.4-18.7
	C225.5,143.1,219.5,143.3,216,146.9L216,146.9z M226.9,148.9c3.2,2.7,3.1,9.1-0.3,12.4c-6.7,6.7-14.7-1.7-10-10.7
	C219.1,146.1,223.1,145.3,226.9,148.9z M207.2,315.2c-5.3,5.3-5.9,10.7-1.7,16c4.4,5.3,12,4.5,15.3-2c2.7-5.3,2.7-12.8-0.7-16
	c-4-4-7.6-3.3-12.8,1.9L207.2,315.2z M219.9,317.5c1.6,3.2,1.3,4-0.8,8.8c-2,4-3.5,5.3-6.7,5.6c-7.3,0.9-10-9.1-4-15.2
	c4.3-4,8.7-3.7,11.3,0.9L219.9,317.5z M398,33.6c-2,4.7-7.1,6.4-18.4,6.4c-10.7,0-14.9,1.3-17.9,5.3c-2.7,3.2-2,7.1,2.1,16
	c4.7,10,4,12-4.7,20c-7.5,6.9-10,11.6-10,18c0,5.7,4,10,9.3,10c4,0,5.6-1.3,9.7-9.6c3.5-6.7,7.3-9.1,15.2-9.1
	c11.1,0,12.8-10.7,2.7-15.5c-6.3-2.9-8.3-7.5-5.6-12.4c2.7-5.6,14-8.8,17.7-5.1c1.3,1.3,1.6,0.8,1.6-2c0-3.2-0.3-3.5-2.7-2.3
	c-1.3,0.7-4.7,1.3-7.3,1.3c-10.3,0-16.8,13.3-9.6,19.5c1.6,1.3,4.5,3.7,6.7,4.9c2,1.3,3.6,3.2,3.6,4.3c0,2.9-5.3,6-11.1,6
	c-7.3,0-9.9,1.9-13.9,10.1c-2.9,6.1-4,7.2-7.1,7.2c-4.5,0-7.1-2.9-6.9-8c0-5.6,2.4-9.3,10.4-16.8c8.5-8,9.1-11.6,4-21.9
	c-6.9-13.3-3.6-17.6,14.9-18c6.4,0,12.9-0.9,14.7-1.7c1.3-0.8,2.9-1.1,3.5-0.7c0.4,0.4,0.8-1.3,0.8-4c0-5.7-0.3-6-2-2L398,33.6z
	 M71.3,68.7c-6,6-3.6,19.3,5.1,26.7c3.6,3.3,4.9,3.6,10.3,3.1c11.6-1.3,14.1-10.7,5.7-22C84,65.3,77.3,62.7,71.3,68.7z M87.3,73.5
	c2.7,3.2,5.9,7.7,6.9,10.4c1.7,4.3,1.7,4.9-0.7,8c-1.9,2.7-4,3.7-8,4c-4.4,0.4-5.9-0.3-9.3-3.7c-4.5-4.4-7.5-12.8-6.1-16.8
	c3.2-8.9,10.1-9.6,17.3-1.7L87.3,73.5z M224.8,77.6c-3.1,4.4-2.7,14.1,0.9,21.1c2.7,5.1,3.6,6,6.9,6c5.1,0,7.6-4.7,6.7-12
	c-1.3-10.3-2.1-12.3-4.8-15.2c-3.6-3.5-7.3-3.5-9.9,0.3L224.8,77.6z M234.1,80.5c2.7,4.4,4,17.3,1.9,20c-2.3,2.7-6.3,2.7-7.7-0.3
	c-2.7-5.3-4.4-15.7-3.1-19.3c1.6-4.5,5.9-4.7,8.7-0.4H234.1z M394.7,96c-5.1,1.3-9.3,5.6-9.3,9.6c0,1.3,0.9,6.3,2.1,10.7
	c1.9,7.2,1.9,8.3,0,11.2c-2.7,4-5.3,5.3-16,8.7c-12.7,4-14.1,6.4-14.1,23.2c0,13.1,0,13.7,3.7,17.1c7.2,6.9,15.1,8,27.7,3.7
	c4.3-1.3,8.5-2.4,9.3-2.1c1.3,0.5,1.9-0.5,1.7-2.9c0-2-0.5-2.7-0.9-2c-0.8,2.1-16.9,7.2-23.3,7.3c-5.9,0-13.1-4-15.3-8.4
	c-1.7-3.6-2.3-15.6-0.9-22.4c1.3-6.3,4.8-9.1,15.2-12c15.3-4.8,17.9-9.1,14.7-24c-2.1-8.5-0.9-13.3,3.3-14.4c2-0.5,4.3,0,5.3,0.8
	c1.7,1.3,2,1.1,2-1.9c0-1.9,0-3.5-0.3-3.3c-0.3,0.3-2.7,0.8-5.1,1.3L394.7,96z M0.8,100.7c0.4,2.1,0.9,6.9,1.1,10.7
	c0.3,6.7,1.7,10.7,6.3,16.5c5.1,6,1.3,13.3-5.3,11.6c-2.1-0.5-2.7,0-2.7,2.4v3.1l6-2.7c7.1-3.5,8.9-7.6,5.6-12.9
	c-5.1-8-7.7-14.3-7.7-20c0-3.3-1.1-7.5-2.1-9.3L0,96.7L0.8,100.7z"/>
<path class="st0" d="M19.5,99.5c-1.3,1.1-2.1,4-2.1,6.4c0,4.4,3.3,8.5,10.9,13.3c4.9,2.9,5.7,6.9,3.1,14.7
	c-6.7,20-9.1,22.7-21.9,24.3c-5.3,0.7-7.2,0.4-8-0.9c-0.9-1.3-1.3-0.9-1.3,1.7c0,3.1,0.4,3.5,2.4,2.7c1.3-0.8,5.7-1.7,10.1-2.1
	c10-0.8,12.7-3.5,18-16.8c5.1-13.3,5.3-20.3,0.5-24.7c-1.9-1.7-4.7-3.6-6-4c-4-1.3-7.1-8-5.3-11.3c2.7-4.9,9.6-3.5,17.3,3.3
	c7.7,6.7,11.7,7.6,20,3.3c9.3-4.8,16-3.1,16,4c0,5.6-4.9,9.1-14,10.1c-10.7,1.3-13.1,3.6-16.7,16.7c-4.5,17.1-9.6,28.4-13.3,30.3
	c-1.9,0.8-9.3,1.7-16.3,2c-12.9,0.4-13.1,0.4-13.1,3.7c0,2,0.4,2.7,1.1,1.7c1.3-2.3,11.5-4.3,20.8-4c7.2,0,8.3-0.4,11.5-4
	c2.3-2.7,5.3-9.7,8.5-20c2.7-8.5,5.6-17.1,6.3-18.7c1.3-3.6,6.3-5.7,12.8-5.7c8.9,0,15.2-5.3,15.2-12.5c0-8-10.3-11.5-18.9-6.1
	c-7.1,4.3-11.6,3.5-19.6-3.3c-7.5-6.7-13.9-8-17.9-4L19.5,99.5z M94.7,107.7c-4.5,4.8-6.7,8.5-9.1,15.7c-1.6,5.3-4,10.7-5.3,11.7
	c-1.3,1.3-5.7,2.7-9.6,3.3c-10.3,1.3-13.3,4.5-17.1,16c-1.7,5.6-4.7,13.6-6.4,18c-4.4,10.7-4.3,19.2,0.3,24.5c2.7,3.2,4.5,4,8.5,4
	c8.7,0,10-2.4,11.3-21.6c0.4-6.3,1.3-13.3,2-16c2.7-8.4,8.7-11.7,12.4-6.4c1.6,2.3,1.3,5.3-1.3,20.9c-1.3,10.1-3.2,21.1-3.6,24.4
	c-0.5,3.3-2,8-3.3,10.1c-2.9,4.9-21.7,17.9-36.4,25.3c-6,2.7-12,6.7-13.3,8.7c-3.6,5.3-4.4,13.9-1.7,18c1.9,2.7,3.2,3.3,9.1,3.3
	c6.9,0,6.9,0,18-11.3s17.7-15.7,30.7-20c10.4-3.3,12-6,15.6-24c3.3-17.3,6.1-39.3,6.1-48c0-3.1-0.7-8.9-1.3-13.3
	c-2.4-10.9-0.4-16.5,9.3-26.3c7.3-7.1,8-8.3,8-13.3c0-7.6-2.9-10.4-10.7-10.4c-5.3,0-6.7,0.7-12,6.4L94.7,107.7z M112.8,106.1
	c4.8,4.7,3.5,8.7-6.1,18.7c-4.4,4.5-8.3,9.9-8.8,12c-0.5,1.9-0.4,8,0,13.7c1.6,14.4,1.6,18.9-0.4,34.7c-2,18.7-6.7,39.7-8.9,43.5
	c-1.1,1.7-4.8,4-8,5.3c-16,5.6-22.7,9.9-31.7,20c-12,13.1-20.3,15.7-25.3,8c-1.3-2.3-1.6-4-0.7-7.6c1.9-6.9,5.6-10.3,17.1-15.5
	c5.6-2.7,12.5-6.4,15.5-8.7c3.1-2.3,8.3-5.9,11.7-8c3.5-2.1,7.2-5.7,8.5-8c1.3-2.7,3.6-13.6,5.3-24.5c5.3-30.7,5.3-32.4,2.7-35.5
	c-3.5-3.6-7.7-3.3-12,0.8c-4,4-4.5,6.3-6,24.3C64,198.7,61.1,202.7,52,198c-5.7-2.9-7.6-10.1-4.7-18c1.3-3.3,3.7-10.7,5.3-16.7
	c6.1-19.1,8-21.3,20-22.9c7.5-0.9,12-5.3,14.7-13.7c2.7-9.3,6.7-16.8,10.9-19.7c7.5-5.3,10.1-5.3,14.7-0.8L112.8,106.1z
	 M326.9,108.9c-2.7,1.1-9.9,17.9-8.9,21.3c0.9,3.7,4.9,6,9.7,5.3c2.7,0,4.4-1.9,7.7-8.3c2.4-4.4,4.4-9.6,4.4-11.5
	c0-6.1-6.7-9.6-13.1-7.1L326.9,108.9z M337.3,113.3c2.1,4-6.1,19.2-10.7,19.7c-6.1,0.7-7.6-2.7-4.7-10.7c1.3-4,3.3-8,4.4-9.3
	C329.1,109.7,335.7,110,337.3,113.3z M128.8,123.1c-4.3,4.4-14.1,24.5-14.1,29.3c0,2.1,1.3,5.1,3.3,6.9c6.7,6.7,12.8,2.7,15.3-9.3
	c0.9-4.7,3.2-9.6,6.1-13.3c4.7-6.3,5.9-12,2.9-15.1c-2.7-2.7-10.3-1.9-13.6,1.3V123.1z M139.7,123.5c4,2.7,3.7,4.7-1.7,11.2
	c-4.3,5.1-7.3,12.4-7.3,17.3c0,3.3-4,8-6.7,8c-3.6,0-6.7-3.6-6.7-8c0-4.8,11.1-25.9,15.1-28.7c3.6-2.7,3.7-2.7,7.3,0V123.5z
	 M326.3,143.5c-4.8,4.7-5.3,8-4.4,20.5c1.1,13.7-0.7,20.9-8.3,33.9c-4.9,8.5-6.3,12-6.7,18.4c-0.7,9.3,1.6,18.7,6.1,24
	c6,7.1,17.6,4,17.6-4.9c0-1.3-1.3-5.3-2.7-8.7c-9.1-19.5,4.5-37.3,16-21.3c4,5.3,8.3,7.5,22.3,10.7c14.4,3.2,19.2,5.6,22.4,11.1
	c3.2,5.3,3.5,16.8,0.7,20.3c-2.4,2.9-24.8,13.3-31.1,14.7c-2.7,0.5-6.9,0-9.7-0.7c-2.9-0.8-12-2-20-2.7c-24-1.6-32.8-7.7-34.7-23.7
	c-1.1-12-2.1-14.3-6.3-14.7c-6.7-0.8-9.1,2.9-12.3,18.1c-2.7,12-1.1,15.6,8.5,20c4,1.7,10.4,6.1,14.1,9.6c4,3.6,8.5,6.9,10.7,7.5
	c1.9,0.5,9.3,0,16.5-0.7c14.3-1.6,19.2-0.7,20.4,4c2,7.5-9.3,12-30.7,12c-12,0-16.4,2.7-16.4,10.7c0,6.1,3.2,9.3,9.3,9.3
	c9.9,0,38.4-9.6,46.4-15.6c2.4-1.7,5.7-6.1,7.6-9.7c1.7-3.5,4.8-7.6,6.7-9.3c4-3.1,20.5-8.4,26.9-8.5c3.7,0,4.4-0.7,4.4-3.3
	c0-2.1-0.4-2.7-1.6-1.6c-0.9,0.7-7.1,2.9-13.7,4.9c-16.3,4.8-20,7.3-24.4,16.4c-3.5,7.2-4.3,8-14.9,13.3
	c-14.4,7.1-36.4,13.1-40.8,11.1c-2.4-0.9-3.2-2.4-3.2-5.6c0-8.3,4-10.4,18.7-10.4c20,0,28-3.5,28-12c0-7.6-8-9.6-27.7-6.7
	c-9.1,1.3-15.1-0.9-21.3-7.7c-2.7-2.9-8.3-6.7-12.3-8.5c-11.2-5.1-11.6-6-9.1-18.7c2.4-11.1,5.1-15.7,9.3-15.7
	c3.3,0,4.3,2.3,5.3,13.1c0.5,8.7,1.1,10.1,5.3,14.7c6.7,6.9,13.3,9.6,25.1,9.6c5.6,0,13.6,0.9,17.7,2c12.9,3.3,19.7,2.7,33.6-3.3
	c18.1-8,21.9-13.1,19.1-25.9c-2.3-10.7-7.1-14.4-22.1-18c-16.9-4-18.7-4.5-26.7-12c-7.3-7.2-9.9-8-14.7-4.5
	c-6.9,4.8-8.9,18-4.3,28.4c3.6,7.6,3.3,11.5-0.5,14c-2.9,2-3.6,2-7.2,0c-4-2-6.1-5.6-8.3-15.7c-1.9-8.7-0.3-14.7,7.5-28l6.7-10.9
	V168c0-17.3,0.3-18.4,3.2-21.6c2.4-2.7,4.4-3.3,7.2-3.1c5.9,0.7,7.1,3.6,4.9,12.7c-0.9,4.3-2,12-2.3,17.1c-0.5,8.8-0.4,9.3,3.2,12.9
	c2,1.9,10.3,6.7,18.3,10.9c18,9.3,22.7,9.6,32.3,2.7c3.6-2.4,7.3-4.3,8.3-4c1.1,0.5,1.6-0.5,1.6-2.9c0-2-0.5-2.9-1.1-2.3
	c-1.9,2.7-18,12.7-20.3,12.7c-1.3,0-10.3-4-20-8.7c-22.7-11.3-23.2-12-18.7-32c2.7-12.9,2.9-14.7,1.3-17.9
	c-3.1-5.1-10.3-5.3-15.1-0.5L326.3,143.5z M397.3,141.3c-1.1,0.5-5.3,1.7-9.7,2.7c-14.3,2.9-21.7,13.9-14.3,21.3
	c3.3,3.3,7.3,3.3,16.5,0c4-1.6,8-2.7,8.8-2c0.8,0.4,1.3-0.5,1.3-2.4v-3.2l-8,3.7c-10.1,5.1-15.2,5.3-18.1,0.7
	c-4.4-6.7,1.6-13.1,15.7-16.3c6.7-1.6,8.4-1.6,9.3,0c0.7,1.1,1.1,0.4,1.1-2.1C400,139.7,400,139.7,397.3,141.3L397.3,141.3z
	 M156.3,143.6c-2.7,1.1-6.7,10.1-7.7,17.3c-0.4,3.7,0,12,0.8,18.1c1.3,9.6,1.3,13.3-0.5,22.7c-1.1,6-2.3,15.2-2.7,20.5
	c-0.4,5.3-1.6,13.3-2.9,17.6c-2.7,9.3-1.7,13.7,2.7,16.8c2.9,1.9,4,1.9,7.5,0.5c2.3-0.9,4.7-2.7,5.3-4c0.8-1.3,1.3-9.3,1.3-17.6
	c0-10.1,0.9-19.6,2.7-28.9c2.7-12.5,2.9-14.7,1.3-24.8c-1.6-9.9-1.3-11.6,0.7-17.3c3.5-9.9,4-17.1,1.3-19.6
	C163.9,142.7,159.7,142.3,156.3,143.6L156.3,143.6z M165.3,148c1.1,1.9,0.7,4.5-1.3,10.7c-2.7,7.5-2.9,10-2.1,23.2
	c0.7,11.2,0.4,16.9-1.1,23.5c-1.3,5.3-2.1,15.2-2.1,26.3c0,16.5,0,17.9-3.1,21.3c-2.7,2.7-4,3.3-6.7,2.7c-4.9-1.3-5.9-6.3-3.2-16.4
	c1.3-4.5,2.3-11.3,2.3-15.2c0-3.7,0.9-11.5,2.1-17.1c1.6-7.7,2-13.3,1.3-23.6c-1.7-22.1-1.3-26.3,3.2-33.7
	C157.7,144.7,163.1,143.7,165.3,148L165.3,148z M278.7,164.4c-4,2-21.3,33.9-22.3,41.3c-1.3,9.7,10.7,15.5,17.6,8.4
	c1.7-1.7,4.4-7.5,6-12.8c2.9-9.9,4.3-11.7,15.1-20.9c8-6.7,6.3-12.7-4.3-16.3c-5.6-1.7-8-1.7-12,0.4L278.7,164.4z M292.7,167.5
	c7.3,3.5,6.9,5.3-3.2,15.1c-8.5,8.3-10.3,11.2-12.5,21.3c-2,9.1-10.1,13.3-15.7,8.4c-4-3.5-2.9-9.3,3.3-20.3
	c3.2-5.3,6.7-12,7.6-14.7c4.5-11.2,11.1-14.4,20.7-9.9L292.7,167.5z M117.3,176c-6.4,3.6-6.7,16.5-0.4,21.3c7.7,6,16.4,0.9,16.4-9.6
	C133.3,178.7,124,172,117.3,176z M128,180c3.3,3.3,3.6,11.5,0.4,14.9c-4.9,5.3-13.7,0.8-13.7-7.3C114.7,178.5,122.3,174.3,128,180z"
	/>
<path class="st0" d="M0,192c0,2.7,0.4,2.9,1.3,1.3c0.8-1.3,4-1.9,10.7-1.9h9.3l10.9,10.7c10.3,10.4,10.9,11.3,9.6,14.7
	c-1.3,4.4-6.7,6.7-11.6,5.3c-2.4-0.5-4.7-2.9-7.2-7.7c-4.9-9.3-9.7-12.8-14.4-10.7c-1.9,0.9-4,3.2-4.8,5.3
	c-1.3,2.9-0.8,5.1,3.3,13.9c4.3,8.9,4.8,11.2,4,16C9.7,248,4,258.3,1.3,256.7c-0.5-0.3-0.9,1.6-1.1,4.3v4.8l4.9-7.2
	c9.3-13.7,10.7-23.7,4-37.9c-4-8.4-4-9.1-2.1-12c3.7-5.7,9.1-3.5,12.9,5.3c5.3,11.3,14.3,14.7,21.3,7.3c2.3-2,4-4.9,4-6.4
	c0-1.3-4.8-7.5-10.9-13.7l-10.9-11.3l-11.7-0.7L0,188.5v3.3L0,192z M111.6,210.7c-4.8,2.9-6.4,9.7-5.3,22.7
	c0.7,11.3,0.7,11.7-2.4,13.7c-2.7,1.6-6.4,2.1-16,1.9c-9.7,0-13.6,0.4-16.9,2.1c-7.7,4-9.1,9.7-3.6,15.2c3.5,3.5,3.5,3.5,17.6,2.3
	c20.9-1.6,25.3-1.3,30.4,2.7c5.7,4.5,6.1,9.3,0.9,12c-3.2,1.6-5.3,1.6-14.4,0c-42.3-6.7-49.9-7.2-64.8-4c-5.1,0.9-10.4,1.6-12,1.3
	c-1.9-0.4-8.3-1.1-14.3-1.6C0.5,278-0.3,278-0.3,280.3c0,2.1,0.4,2.3,2.7,1.1c1.9-0.9,6.1-0.9,14.7,0.3c10.7,1.3,13.6,1.3,24.9-0.9
	c12-2.4,13.3-2.4,25.6-0.4c6.9,1.3,20.3,3.3,29.6,4.5c16.9,2.4,17.1,2.4,20.7-0.3c2.4-1.7,4-4.3,4-6.7c0.4-3.3-0.4-4.8-4.4-8
	c-6-4.5-12.5-5.3-28.9-3.3c-14.7,1.6-20.4,0.4-21.7-4.8c-1.9-7.5,6.4-11.2,24.7-11.2c12.7,0,13.3,0,15.5-3.2
	c1.7-2.7,1.9-5.3,1.3-15.1c-1.1-13.3,0.3-17.3,6.3-20c6.7-3.3,12.9,0.8,12.9,8c0,2.7-1.3,8-2.7,12.3c-3.3,9.9-3.3,17.1,0,24.7
	c1.6,3.3,3.2,8.9,3.6,12.4c1.3,11.1,8,13.1,21.1,6.1c13.9-7.6,25.6-4.8,30.7,7.1l2.4,6.1l-3.5,13.9c-6.3,24.8-7.6,28-13.3,30.7
	c-8.3,4-18.1,4.3-31.1,0.8c-10.7-2.9-12.4-3.1-22.7-1.6c-8.5,1.3-11.7,1.3-14.4,0c-6.3-2.7-6.3-12.7,0-15.5c4.9-2.3,31.7-2,40.9,0.4
	c4.3,1.1,10,2,12.9,2c6.7,0,9.3-3.6,13.3-16c2.9-8.7,3.1-9.3,0.8-12.5c-2.7-4.4-9.6-4.7-14.7-0.8c-6.1,4.9-12.5,6.7-32.8,8.8
	c-18.7,1.9-20.8,1.9-30.4,0c-24.4-5.3-33.3-6-49.3-2.7c-5.3,1.1-11.6,2.1-13.3,2.1c-3.6,0-14.7-2.1-22-4.3c-3.3-1.1-3.6-0.8-3.6,3.1
	c0,4,0,4,1.9,1.6c1.7-2.4,2.3-2.7,8.4-0.7c8.5,2.7,19.7,2.4,34.9-0.4c13.3-2.7,20.5-2.1,38.7,2.7c9.3,2.3,20,2.3,41.9-0.3
	c15.1-1.6,18-2.4,23.7-6c7.2-4.4,12-5.1,14.4-2c3.2,3.7-2.7,20.3-8.7,24c-3.2,2.3-4,2.3-11.3,0c-5.7-1.3-13.3-2-27.7-2
	c-18.9,0-20,0-22.7,3.1c-4,4.3-4,10.7,0.5,15.2c3.3,3.3,3.7,3.5,14.3,2.4c14.3-1.3,18-1.1,24.9,1.3c7.2,2.7,26.7,2.7,32.4,0
	c6.9-2.7,9.1-6.4,13.7-23.6c5.3-19.6,5.7-28,1.3-34.7c-6.4-9.6-17.6-11.5-31.2-5.1c-4.7,2.3-9.9,4-11.6,4c-4.3,0-7.3-4.8-7.3-11.2
	c0-2.7-1.3-7.1-2.7-9.3c-4.3-7.3-4.4-11.7-0.8-22.4c4.4-12.7,4.4-17.6,0-21.7c-3.3-3.6-11.1-4.5-15.6-1.9L111.6,210.7z M178.7,212.8
	c-8.3,10.7,4.7,24,14,14.7c6.7-6.7,2.3-18.1-6.7-18.1c-3.2,0-5.3,0.9-7.2,3.5H178.7z M191.7,213.7c2.3,1.9,2,8.9-0.7,12
	c-4.5,4.9-12.4,1.3-12.4-5.3C178.7,212.4,185.6,209.1,191.7,213.7z M351.1,228c-6.3,2.7-7.6,11.6-2.4,16.7c4.9,5.1,13.7,4.7,20-0.7
	c5.3-4.8,7.3-11.3,4.4-14.3C370.8,227.5,355.3,226.3,351.1,228z M371.1,232.3c2.1,3.3-1.3,9.1-7.6,12c-10.7,5.6-20.7-4.3-13.1-12.7
	c2.9-3.3,18.7-2.7,20.8,0.7H371.1z M177.6,245.7c-5.3,5.6-2.7,10.7,7.7,16c5.3,2.7,6.3,3.7,8.9,11.5c3.2,9.3,4.5,10.7,10,10.7
	c7.7,0,10-10.7,4.5-22c-7.5-16-23.6-24.4-31.2-16.3V245.7z M190.4,246.1c8.8,3.6,16.8,13.9,19.5,25.1c1.3,5.3-2.3,10.4-6.9,9.9
	c-3.1-0.4-4-1.3-5.9-7.6c-2.7-8.5-5.3-11.5-12.8-14.9c-5.6-2.7-8.3-7.2-6.3-10.4c0.8-1.3,4.7-3.3,7.1-4l5.3,2.1L190.4,246.1z
	 M261.9,273.9l-4.4,4.4l0.3,19.2c0,12.9-0.7,23.1-2.1,30.7c-6,30.9-4.8,33.9,14.4,36c14.4,1.7,16.9,4,18.7,16.5
	c0.9,7.1,4,10.1,10.3,10.1c4,0,6.4-1.1,9.6-4c4-3.3,4.4-4.5,4.4-10.9c0-9.6-4.4-15.6-14.9-20.3c-16.9-7.7-17.1-7.7-17.1-12.8v-4.7
	h7.5c6.4,0.3,9.3,1.3,18,6.1c12.7,7.2,24,17.3,27.6,24.5c3.3,6.7,9.3,28.5,8.3,30.3c-0.4,0.8,0.4,1.3,1.9,1.3c2.7,0,2.7-0.3,0.3-7.7
	l-4.5-15.1c-2.9-10.3-8.7-18.4-17.9-25.6c-16-12.7-33.3-19.3-41.1-16c-2.7,1.3-3.2,2.7-3.2,6.1c0,5.7,4.5,9.9,15.7,13.9
	c10.9,4,17.6,11.3,17.6,19.3c0,6.7-2.4,10.7-8,12.9c-3.7,1.3-4.5,1.3-7.7-0.9c-2.7-2-4-4.4-4.9-10.4c-1.7-10.1-5.3-12.8-18.1-14.1
	c-10.4-1.3-15.5-3.7-17.3-8.5c-0.7-2,0-8,1.6-16.9c1.7-9.3,2.7-20.9,3.1-34.7l0.5-22.4c0-0.9,1.3-3.2,3.3-4.9c4-4,9.7-4.3,14.7-0.5
	c4.4,3.6,4.4,8.7,0,17.3c-5.6,11.1-4,25.3,3.6,29.3c5.3,3.1,16.3,5.3,24.7,5.3c6,0,12.9-1.3,25.3-5.3c23.5-7.6,27.5-6.7,33.3,6.4
	c4.7,10.7,4,13.9-3.5,22c-8,8.4-8.8,11.7-6.7,23.3c3.5,18.4,5.1,20,20.5,22.7c4.3,0.9,8.5,2,9.3,2.7c0.8,0.5,3.3,1.3,5.3,1.3l4,0.4
	l-4-2.4c-2-1.3-8.4-3.3-13.9-4c-13.7-2.3-14.9-3.3-17.7-15.1c-3.7-16.3-2.7-20.5,6.3-29.3c2.7-2.4,5.1-6.1,5.3-8.3
	c1.3-5.1-3.6-18.4-8-23.1c-4.9-4.7-13.9-4.5-29.1,0.7c-18,6-25.7,7.2-34.9,5.3c-17.3-3.6-20.9-6.7-20.9-19.1c0-5.3,0.9-8.7,3.6-13.3
	c5.6-9.6,4.3-16.9-4-20.4c-6.7-2.7-9.7-2.3-14.7,2.7L261.9,273.9z M398,278.4c-0.8,0.7-3.7,1.9-6.7,2.7c-8.4,2.4-12,6.9-12,15.3
	c0,9.3,2.7,15.6,8.8,23.2c3.1,3.6,6,8.8,6.7,11.7l3.5,10.7l1.7,5.3l-0.4-8c0-4.4-0.7-8.7-1.3-9.3c-0.4-0.8-3.1-4-5.6-7.3
	c-9.9-12.7-13.9-26.9-9.3-33.7c2.7-4,8.8-6.7,13.3-6c2.7,0.5,3.3,0,3.3-2.4C400,277.1,399.7,276.8,398,278.4L398,278.4z"/>
<path class="st0" d="M398.1,299.6c-0.4,2.1-0.3,5.3,0.4,7.7c0.9,3.5,1.1,3.1,1.3-3.7c0-8.3-0.7-9.7-1.9-4H398.1z M0.3,310
	c0,3.5,0.7,4,2.7,3.7c3.1-0.9,9.7,8.5,11.7,16.9c2.1,8.9,0,13.9-6.7,14.4c-3.2,0.4-5.1-0.3-6.3-1.9C0,341.1,0,341.3,0,344.8
	c0,4,0,4,5.7,3.5c8-0.8,11.6-4.4,11.6-12.5c0-8.8-2.7-14.9-10.7-23.2L0,305.6L0.3,310L0.3,310z"/>
<path class="st0" d="M49.7,313.3c-13.3,1.9-16.9,4.9-19.2,16.3c-2,9.3,0,14.7,5.9,15.5c3.2,0.4,4.9-0.8,10.7-6.9
	c7.2-8,10.9-9.3,14.7-5.3c2.9,2.7,2.7,6.9-0.9,13.1c-4.7,8.5-9.3,10.4-28,11.6c-8.9,0.8-19.2,1.9-22.7,2.7c-4.8,0.9-7.2,0.9-8.5,0
	c-1.3-1.3-1.7-0.9-1.7,1.9c0,2.9,0.4,3.3,2.3,2.3c4-2,26.3-5.3,36-5.3c10.7,0,15.5-1.3,20-5.7c12.3-11.2,8-29.3-5.6-24
	c-1.1,0.4-4,3.3-6.1,6.7c-6.7,9.6-14.7,9.1-14.7-1.3c0-13.3,6.1-18.1,24.8-19.3c12.3-0.7,15.3,0.4,18.7,6.7c2.3,4,2.7,8.3,2.7,33.7
	c0,33.3,1.6,44.7,6.4,44.7c1.7,0,2.3-0.4,1.3-1.1c-0.9-0.5-2.7-4.8-4-9.6c-1.9-7.1-2.3-13.6-2-35.5c0.3-29.3-0.5-33.6-7.3-38.9
	c-4-3.2-8.3-3.5-22.9-1.3L49.7,313.3z M336,331.6c-2.7,1.1-6.7,4.5-6.7,6c0,0.7,2.3,3.3,5.1,5.7c5.7,5.3,10.9,6,14.9,1.7
	c5.6-6,1.9-14.7-6.4-14.3c-2.7,0-5.9,0.5-6.9,0.9L336,331.6z M347.7,335.1c2.7,2.1,1.9,7.3-1.6,9.6c-3.6,2.4-6.4,1.6-10.7-3.3
	C329.7,335.2,340.8,329.6,347.7,335.1z M98.7,352.4c-6.9,4.5-7.6,9.3-4,27.1c1.7,8,3.2,16,3.2,17.3c0,2.3,0.9,3.2,2.9,3.2
	c2.7,0,2.7,0,0.4-5.1c-3.2-6.3-7.5-30.4-6.3-35.1c2.3-9.3,19.7-11.5,38.1-4.9c12.4,4.5,16.7,4.5,27.7,0c14.3-5.9,27.6-4,33.1,4.3
	c1.9,2.9,2,5.6,0.9,20.8c-0.9,12.7-1.7,17.9-3.2,18.7c-1.3,0.9-1.3,1.3,1.3,1.3c3.2,0,3.3-0.3,3.5-9.1c0-4.9,0.4-13.9,0.7-20
	c0.7-10,0.4-10.9-2.7-14.3c-7.1-7.7-20-9.3-32.3-4.5c-13.9,5.7-14.7,5.7-27.2,1.3c-15.2-5.3-29.7-5.6-36.7-0.9L98.7,352.4z M392,360
	c-4.8,0.4-8.8,1.6-10.7,3.2c-3.6,3.5-3.6,9.6,0.3,11.6c3.6,2,18.4,4,18.4,2.4c0-0.5-0.4-1.1-0.9-1.1c-3.7-0.3-12-1.9-14.7-2.7
	c-3.7-1.3-4-5.3-0.4-8.7c3.1-2.7,13.3-3.1,14.7-0.4c0.9,1.3,1.3,0.5,1.3-2c0-2,0-3.5-0.3-3.5c-0.3,0.3-3.7,0.8-8,1.3L392,360z"/>
<path class="st0" d="M110.3,369.1c-1.3,1.3-2.3,4.7-2.3,8c0,6.9,4,11.2,15.5,16.3c4.8,2.3,8.4,4.5,8,5.3c-0.7,0.8,0.5,1.3,2.7,1.3
	c2.9,0,3.3-0.3,1.9-2c-0.9-1.3-6-4-11.2-6.7c-11.5-5.3-14.7-8.5-14.7-14.7c0-6.7,2.1-8.4,7.6-6.1c2.3,0.9,8.8,2.7,14.3,4.3
	c13.3,3.5,14.9,5.3,15.3,16c0.3,7.1,0.7,8.5,2.7,8.8c2.1,0.4,2.4,0,1.1-1.3c-0.9-0.8-1.7-4.5-1.7-8c0-12-2.7-14.7-18.7-17.7
	c-2.7-0.5-6.9-2.1-9.6-3.5c-6.1-3.3-8-3.3-10.7-0.3L110.3,369.1z M164,372.9c-2.4,3.1-2.7,5.1-2.4,15.3c0.4,11.3,0.5,11.7,3.6,11.7
	c2.4,0,2.7-0.4,1.3-1.9c-0.7-0.9-1.7-6.3-2.1-11.7c-0.8-8.3-0.5-10.3,1.3-12c3.1-3.2,6.7-2.9,9.3,0.3c2.1,2.1,2.4,4,1.7,11.3
	c-0.5,4.8-1.3,9.7-2.1,10.9c-0.8,2-0.5,2.4,1.7,2.4c2.7,0,2.9-0.7,2.7-10.7c0-13.7,0-13.3-3.1-16.7
	C172.3,368.3,167.5,368.7,164,372.9L164,372.9z M33.1,373.3c-1.3,0.8-2.7,4-3.1,8.3c-2,14.4-11.3,16.4-16.4,3.7
	c-2.1-5.1-4-7.1-8-9.1c-5.6-2.7-5.6-2.7-5.6,0c0,1.3,0.5,2.1,1.3,1.7c2.4-1.3,6.7,2.1,10,8.7c8.3,16.3,17.3,13.3,21.3-7.1
	c0.9-4.8,5.7-6.7,12.8-5.1c7.7,1.6,10.7,4.7,10.7,10.7c0,4.3-0.8,5.7-4.4,8.5c-2.4,1.9-5.9,4-7.6,4.7c-2.9,1.1-2.7,1.3,2.3,1.1
	c3.1,0,5.3-0.5,5.3-0.9c0-0.3,1.3-2.3,3.5-4.3c4-4,4.8-10.9,2.1-16c-2.9-5.3-18.3-8.5-24.3-5.1L33.1,373.3z M249.3,381.3
	c-10.7,4.5-16.5,5.3-22.7,2.7c-8-3.3-17.3,0.8-13.9,6.3c0.8,1.3,3.5,3.5,6,4.7c4.5,2.1,6.7,2.7,18,4.4l5.3,0.8l-4-1.7
	c-2.1-1.1-7.3-2.7-11.3-3.6c-6.9-1.6-12-4.5-12-6.7c0-3.1,5.3-4,10.7-2c8.3,2.9,14.1,2.4,24.7-2c12.8-5.6,17.9-6.3,21.9-3.1
	c2.7,2.3,2.7,3.1,1.3,5.3c-0.7,1.7-2.7,3.6-4,4.4c-1.3,0.7-3.7,3.1-5.3,5.3l-2.7,4h2.7c1.6,0,2.7-0.5,2-1.3
	c-0.4-0.7,1.7-3.5,4.7-6.1c5.3-5.3,6.9-10.4,3.7-13.6c-2.9-2.9-14.7-1.7-25.1,2.7V381.3z M318.9,386.9c-0.7,0.9-1.6,4.3-1.9,7.3
	c-0.4,5.3-0.3,5.7,2.7,5.7c2.7,0,2.9,0,1.1-2.1c-4-3.7-2.1-9.9,2.7-9.9c3.5,0,4.7,1.3,5.7,7.2c0.5,2.7,1.7,4.3,3.3,4.5
	c2.1,0.4,2.4,0,1.1-1.3c-0.9-0.8-1.7-2.7-1.7-4c0-6.1-9.6-11.7-13.1-7.5L318.9,386.9z"/>
</svg>
