<svg xmlns="http://www.w3.org/2000/svg" viewBox="0 0 284 294"><g fill="none" fill-rule="evenodd"><path fill="#124235" d="M80.052 87.568c1.944 0 3.528 1.368 2.232 4.896h-2.736c-.216.864-.432 2.016-.432 3.096 0 2.952 1.872 5.112 5.76 5.112 3.384 0 5.976-1.944 5.976-6.264 0-3.528-2.448-8.064-11.448-8.064-12.96 0-17.208 7.992-17.208 21.096v.288H58.02v1.296h4.176v31.68h-3.96V142h26.136v-1.296h-8.784v-31.68h9.504v-1.296h-9.504v-11.52c0-5.472.576-8.64 4.464-8.64zm29.808 22.176c1.512 0 2.952.72 1.512 3.672h-2.592c-1.512 5.112.792 8.136 5.616 8.136 3.888 0 6.048-2.736 6.048-6.84 0-5.472-3.384-7.704-7.632-7.704-4.32 0-8.352 2.52-9.648 7.632v-6.912H85.812v1.296h3.96v31.68h-3.96V142h22.464v-1.296h-5.112v-19.296c0-6.48 3.24-11.664 6.696-11.664zm11.952 15.192c0 10.44 5.76 17.784 18.576 17.784 10.224 0 13.968-4.752 15.624-10.944l-1.296-.216c-1.584 5.544-5.184 8.928-10.512 8.928-6.984 0-8.496-5.76-8.496-14.256v-2.808h20.304c.432-10.728-4.392-16.416-15.696-16.416-10.008 0-18.504 5.472-18.504 17.928zm13.968-2.952v-3.528c0-7.632 1.368-10.08 3.888-10.08 2.952 0 3.528 2.52 3.528 10.08v3.528h-7.416zm24.48 20.736h.864c1.152-2.016 2.16-2.664 3.096-2.664.288 0 .936.288 1.368.576 2.736 1.368 5.184 2.088 8.64 2.088 8.136 0 13.464-4.104 13.464-12.312 0-8.496-6.336-10.8-12.024-12.312-4.752-1.296-9.072-2.088-9.072-5.4 0-2.232 1.944-4.176 6.696-4.176 5.112 0 8.784 2.736 11.376 9.36h.864v-11.016h-.792c-.936 1.8-1.44 2.376-2.52 2.376-.864 0-1.152-.216-2.016-.576-1.944-.864-4.104-1.656-7.272-1.656-7.632 0-12.672 4.824-12.672 12.168 0 7.992 6.408 10.224 12.168 11.808 5.472 1.512 9 2.232 9 5.472 0 2.736-2.016 4.68-7.344 4.68-5.904 0-10.296-2.52-12.96-11.304h-.864v12.888zM189.852 88v1.296h3.96v51.408h-3.96V142H210.3v-1.296h-3.096v-19.872c0-5.832 2.808-10.368 5.832-10.368 1.8 0 2.664.72 2.664 6.84v23.4h-2.952V142h20.376v-1.296h-4.032v-21.672c0-8.712-4.464-12.024-11.16-12.024-7.128 0-9.504 3.744-10.728 7.344V88h-17.352zM33.9 141v1.296h3.96v51.408H33.9V195h20.448v-1.296h-3.096v-19.872c0-5.832 2.808-10.368 5.832-10.368 1.8 0 2.664.72 2.664 6.84v23.4h-2.952V195h20.376v-1.296H73.14v-21.672c0-8.712-4.464-12.024-11.16-12.024-7.128 0-9.504 3.744-10.728 7.344V141H33.9zm44.712 36.936c0 10.44 5.76 17.784 18.576 17.784 10.224 0 13.968-4.752 15.624-10.944l-1.296-.216c-1.584 5.544-5.184 8.928-10.512 8.928-6.984 0-8.496-5.76-8.496-14.256v-2.808h20.304c.432-10.728-4.392-16.416-15.696-16.416-10.008 0-18.504 5.472-18.504 17.928zm13.968-2.952v-3.528c0-7.632 1.368-10.08 3.888-10.08 2.952 0 3.528 2.52 3.528 10.08v3.528H92.58zm46.872-12.24c1.512 0 2.952.72 1.512 3.672h-2.592c-1.512 5.112.792 8.136 5.616 8.136 3.888 0 6.048-2.736 6.048-6.84 0-5.472-3.384-7.704-7.632-7.704-4.32 0-8.352 2.52-9.648 7.632v-6.912h-17.352v1.296h3.96v31.68h-3.96V195h22.464v-1.296h-5.112v-19.296c0-6.48 3.24-11.664 6.696-11.664zm34.848 18.072c0 9.36-.216 13.608-4.32 13.608-4.392 0-4.536-5.4-4.536-13.752v-5.616c0-8.136.216-13.752 4.608-13.752 4.032 0 4.248 5.616 4.248 13.392v6.12zm-22.68-2.808c0 11.232 6.12 17.712 18.216 17.712 12.816 0 18.288-6.552 18.288-18.36 0-11.664-5.76-17.352-17.856-17.352-11.592 0-18.648 6.192-18.648 18zm38.88-.072c0 10.44 5.76 17.784 18.576 17.784 10.224 0 13.968-4.752 15.624-10.944l-1.296-.216c-1.584 5.544-5.184 8.928-10.512 8.928-6.984 0-8.496-5.76-8.496-14.256v-2.808H224.7c.432-10.728-4.392-16.416-15.696-16.416-10.008 0-18.504 5.472-18.504 17.928zm13.968-2.952v-3.528c0-7.632 1.368-10.08 3.888-10.08 2.952 0 3.528 2.52 3.528 10.08v3.528h-7.416zm24.48 20.736h.864c1.152-2.016 2.16-2.664 3.096-2.664.288 0 .936.288 1.368.576 2.736 1.368 5.184 2.088 8.64 2.088 8.136 0 13.464-4.104 13.464-12.312 0-8.496-6.336-10.8-12.024-12.312-4.752-1.296-9.072-2.088-9.072-5.4 0-2.232 1.944-4.176 6.696-4.176 5.112 0 8.784 2.736 11.376 9.36h.864v-11.016h-.792c-.936 1.8-1.44 2.376-2.52 2.376-.864 0-1.152-.216-2.016-.576-1.944-.864-4.104-1.656-7.272-1.656-7.632 0-12.672 4.824-12.672 12.168 0 7.992 6.408 10.224 12.168 11.808 5.472 1.512 9 2.232 9 5.472 0 2.736-2.016 4.68-7.344 4.68-5.904 0-10.296-2.52-12.96-11.304h-.864v12.888zm-153.82 33.327c0-.453-.115-.81-.347-1.074-.23-.263-.646-.52-1.245-.77-1.167-.41-2.044-.877-2.633-1.398-.588-.52-.882-1.25-.882-2.188 0-.932.335-1.69 1.007-2.277.672-.586 1.53-.88 2.57-.88 1.105 0 1.993.313 2.665.938.672.625.997 1.464.976 2.516l-.015.047h-2.14c0-.588-.132-1.034-.395-1.34-.264-.304-.64-.456-1.13-.456-.42 0-.75.14-.984.418-.234.28-.35.626-.35 1.043 0 .385.13.703.397.953s.722.524 1.368.82c1.1.365 1.93.826 2.496 1.383.565.56.848 1.31.848 2.25 0 .975-.33 1.74-.992 2.298-.662.557-1.54.836-2.633.836-1.078 0-2-.3-2.766-.902-.764-.602-1.134-1.517-1.108-2.746l.016-.047h2.148c0 .712.145 1.225.434 1.538.29.312.715.47 1.277.47.474 0 .83-.132 1.066-.392.237-.26.356-.607.356-1.04zm12.477-6.695h-2.67V232h-2.212v-9.648H80.12v-1.727h7.485v1.727zm7.508 7.187H92.27l-.64 2.46H89.33l3.227-11.375h2.28L98.066 232h-2.304l-.65-2.46zm-2.39-1.735h1.937l-.945-3.61h-.047l-.945 3.61zm15.79 2.695c-.324.453-.792.844-1.404 1.172-.613.328-1.403.492-2.372.492-1.23 0-2.215-.358-2.957-1.074-.74-.716-1.112-1.733-1.112-3.05v-3.454c0-1.313.36-2.328 1.082-3.047.72-.72 1.676-1.08 2.863-1.08 1.24 0 2.175.294 2.805.88.63.586.935 1.42.914 2.504l-.016.047h-2.07c0-.593-.13-1.025-.39-1.296-.26-.27-.654-.406-1.18-.406-.568 0-1.01.197-1.328.593-.318.397-.477.993-.477 1.79v3.47c0 .812.163 1.416.485 1.812.323.395.784.593 1.383.593.427 0 .763-.05 1.008-.152s.432-.236.563-.402v-2.296h-1.736v-1.524h3.938v4.43zm9.264-3.523H114.3v3.304h4.165V232h-6.367v-11.375h6.35v1.727h-4.147v2.906h3.477v1.72zm6.29.906V232h-2.204v-11.375h3.805c1.14 0 2.044.335 2.71 1.004.668.668 1 1.544 1 2.628 0 1.088-.332 1.965-1 2.63-.666.663-1.57.995-2.71.995h-1.602zm0-1.727h1.6c.496 0 .872-.177 1.13-.53.258-.355.387-.806.387-1.353 0-.557-.13-1.016-.387-1.378-.258-.362-.634-.543-1.13-.543h-1.6v3.804zm10.92 4.125h4.243V232h-6.445v-11.375h2.203v9.656zm13.243-3.303h-3.476v3.304h4.164V232h-6.367v-11.375h6.352v1.727h-4.148v2.906h3.476v1.72zm6.89.25h-.6V232h-2.204v-11.375h2.204v4.656h.453l2.414-4.655h2.734l-3.28 5.195 3.523 6.18h-2.812l-2.43-4.773zm17.11 1.867l.094.476h.047l.095-.453 1.97-8.492h2.32L173.494 232h-2.288l-3.242-11.375h2.32l1.945 8.47zm15.43-1.188c0 1.34-.377 2.383-1.133 3.133-.755.75-1.76 1.124-3.015 1.124-1.255 0-2.258-.375-3.008-1.125s-1.125-1.795-1.125-3.134v-3.172c0-1.333.373-2.38 1.12-3.136.747-.758 1.75-1.137 3.004-1.137 1.255 0 2.262.38 3.02 1.138.757.757 1.136 1.803 1.136 3.136v3.172zm-2.195-3.195c0-.827-.168-1.452-.504-1.874-.335-.422-.82-.633-1.456-.633-.64 0-1.122.21-1.445.63-.324.418-.486 1.045-.486 1.878v3.196c0 .844.163 1.477.488 1.9.326.42.81.63 1.45.63.64 0 1.126-.21 1.457-.63.33-.423.495-1.056.495-1.9v-3.195zm13.805 3.196c0 1.34-.378 2.383-1.133 3.133s-1.76 1.124-3.016 1.124c-1.254 0-2.257-.375-3.007-1.125s-1.125-1.795-1.125-3.134v-3.172c0-1.333.374-2.38 1.12-3.136.75-.758 1.75-1.137 3.005-1.137s2.262.38 3.02 1.138c.758.757 1.137 1.803 1.137 3.136v3.172zm-2.196-3.195c0-.827-.168-1.452-.504-1.874-.336-.422-.82-.633-1.457-.633-.64 0-1.122.21-1.445.63-.323.418-.484 1.045-.484 1.878v3.196c0 .844.162 1.477.488 1.9.325.42.808.63 1.45.63.64 0 1.125-.21 1.456-.63.33-.423.496-1.056.496-1.9v-3.195zm7.938 2.727V232h-2.203v-11.367h3.405c1.13 0 2.02.294 2.668.883.648.588.972 1.408.972 2.46 0 .59-.136 1.1-.41 1.532-.273.432-.668.776-1.183 1.03.593.2 1.02.527 1.28.985.26.46.392 1.032.392 1.72v.827c0 .318.036.65.11 1 .072.35.202.604.39.766V232h-2.282c-.182-.167-.298-.44-.347-.816-.05-.378-.075-.754-.075-1.13v-.796c0-.578-.12-1.026-.36-1.344-.238-.318-.582-.476-1.03-.476h-1.328zm0-1.718h1.187c.473 0 .834-.143 1.08-.427.25-.284.372-.686.372-1.207 0-.53-.122-.953-.367-1.266-.245-.312-.6-.468-1.07-.468h-1.203v3.367zM79.348 250.47l.015.046c.02 1.218-.29 2.13-.933 2.738-.644.607-1.562.91-2.754.91-1.224 0-2.196-.36-2.914-1.082-.72-.72-1.078-1.746-1.078-3.074v-3.375c0-1.323.347-2.35 1.043-3.078.695-.73 1.634-1.094 2.816-1.094 1.245 0 2.2.303 2.867.907.667.604.99 1.518.97 2.742l-.017.046h-2.14c0-.73-.13-1.24-.387-1.53-.258-.293-.69-.44-1.293-.44-.552 0-.966.2-1.242.6-.275.398-.413 1.008-.413 1.83v3.392c0 .828.148 1.44.445 1.84.297.398.745.597 1.344.597.547 0 .94-.144 1.18-.433.24-.29.36-.804.36-1.543h2.132zm5.6-1.032V254h-2.202v-11.367h3.406c1.13 0 2.02.294 2.668.883.65.588.973 1.408.973 2.46 0 .59-.137 1.1-.41 1.532-.274.432-.668.776-1.184 1.03.593.2 1.02.527 1.28.985.26.46.39 1.032.39 1.72v.827c0 .318.038.65.11 1 .073.35.204.604.39.766V254h-2.28c-.182-.167-.298-.44-.348-.816-.05-.378-.074-.754-.074-1.13v-.796c0-.578-.12-1.026-.36-1.344-.24-.318-.583-.476-1.03-.476h-1.33zm0-1.72h1.19c.473 0 .833-.14 1.08-.425.248-.284.372-.686.372-1.207 0-.53-.123-.953-.367-1.266-.245-.312-.602-.468-1.07-.468h-1.204v3.367zm14.306 1.26h-3.477v3.303h4.164V254h-6.366v-11.375h6.352v1.727h-4.15v2.906h3.478v1.72zm9.133 2.56h-2.844l-.64 2.462h-2.298l3.227-11.375h2.28L111.34 254h-2.305l-.648-2.46zm-2.39-1.733h1.937l-.946-3.61h-.047l-.944 3.61zm14.093-5.453h-2.672V254h-2.21v-9.648h-2.603v-1.727h7.485v1.727zm5.398 9.648h-2.195v-11.375h2.195V254zm7.336-2.906l.094.476h.047l.094-.453 1.967-8.492h2.32L134.09 254h-2.29l-3.24-11.375h2.32l1.944 8.47zm13.14-2.117h-3.476v3.304h4.164V254h-6.367v-11.375h6.352v1.727h-4.15v2.906h3.478v1.72zm7.54 2.117l.094.476h.047l.093-.453 1.97-8.492h2.32L154.77 254h-2.29l-3.242-11.375h2.32l1.946 8.47zm15.43-1.188c0 1.34-.378 2.383-1.133 3.133-.754.75-1.76 1.124-3.015 1.124-1.255 0-2.258-.375-3.008-1.125s-1.125-1.795-1.125-3.134v-3.172c0-1.333.374-2.38 1.12-3.136.75-.758 1.75-1.137 3.005-1.137 1.256 0 2.262.38 3.02 1.138.758.757 1.137 1.803 1.137 3.136v3.172zm-2.196-3.195c0-.827-.168-1.452-.504-1.874-.336-.422-.82-.633-1.457-.633-.64 0-1.122.21-1.445.63-.323.418-.484 1.045-.484 1.878v3.196c0 .844.162 1.477.488 1.9.325.42.81.63 1.45.63.64 0 1.125-.21 1.456-.63.33-.423.496-1.056.496-1.9v-3.195zm13.352 5.79c-.323.453-.79.844-1.403 1.172-.61.328-1.402.492-2.37.492-1.23 0-2.215-.358-2.958-1.074-.743-.716-1.114-1.733-1.114-3.05v-3.454c0-1.313.36-2.328 1.082-3.047.72-.72 1.676-1.08 2.863-1.08 1.24 0 2.176.294 2.806.88.63.586.935 1.42.914 2.504l-.015.047h-2.07c0-.593-.13-1.025-.39-1.296-.262-.27-.655-.406-1.18-.406-.57 0-1.012.197-1.33.593-.317.397-.476.993-.476 1.79v3.47c0 .812.16 1.416.484 1.812.323.395.783.593 1.382.593.427 0 .763-.05 1.008-.152s.433-.236.563-.402v-2.296h-1.735v-1.524h3.938v4.43zm9.265-3.523h-3.476v3.304h4.163V254h-6.367v-11.375h6.35v1.727h-4.147v2.906h3.475v1.72zm6.29 3.304h4.242V254h-6.446v-11.375h2.205v9.656zm12.578-1.233c0-.453-.116-.81-.348-1.074-.232-.263-.647-.52-1.246-.77-1.168-.41-2.045-.877-2.634-1.398-.588-.52-.883-1.25-.883-2.188 0-.932.336-1.69 1.008-2.277.673-.586 1.53-.88 2.57-.88 1.106 0 1.994.313 2.665.938.672.625.998 1.464.977 2.516l-.016.047h-2.14c0-.588-.132-1.034-.395-1.34-.262-.304-.638-.456-1.128-.456-.422 0-.75.14-.984.418-.234.28-.352.626-.352 1.043 0 .385.133.703.4.953.264.25.72.524 1.366.82 1.1.365 1.93.826 2.496 1.383.565.56.848 1.31.848 2.25 0 .975-.33 1.74-.992 2.298-.662.557-1.54.836-2.633.836-1.077 0-2-.3-2.765-.902-.765-.602-1.135-1.517-1.11-2.746l.016-.047h2.15c0 .712.144 1.225.433 1.538.29.312.715.47 1.278.47.475 0 .83-.132 1.067-.392s.356-.607.356-1.04z"/><g fill="#124235"><path d="M253 239h-24c-.185 0-2 0-2-2s1.815-2 2-2h24l4 2-4 2zm10-2l-9-6h-25s-6 0-6 6 6 6 6 6h25l9-6z"/><path d="M253 239h-2v-4h2M231 239h-2v-4h2M251 236v2h-20v-2"/></g><g fill="#124235"><path d="M25 240v-4h28v4H25zm32 1.99v-7.98c0-1.11-.89-2.01-2-2.01H23c-1.105 0-2 .902-2 2.01v7.98c0 1.11.89 2.01 2 2.01h32c1.105 0 2-.902 2-2.01z"/><path d="M30 239h-2v-3h2M34 238h-2v-2h2M42 239h-2v-3h2M38 238h-2v-2h2M46 238h-2v-2h2M50 238h-2v-2h2"/></g><path fill="#288F73" d="M15 88c0-.552-.448-1-1-1s-1 .448-1 1c0 3.866-2.134 6-6 6-.552 0-1 .448-1 1s.448 1 1 1c3.866 0 6 2.134 6 6 0 .552.448 1 1 1s1-.448 1-1c0-3.866 3.134-6 7-6h-1c.552 0 1-.448 1-1s-.448-1-1-1c-3.866 0-6-2.134-6-6zm256 0c0-.552-.448-1-1-1s-1 .448-1 1c0 3.866-2.134 6-6 6-.552 0-1 .448-1 1s.448 1 1 1c3.866 0 6 2.134 6 6 0 .552.448 1 1 1s1-.448 1-1c0-3.866 3.134-6 7-6h-1c.552 0 1-.448 1-1s-.448-1-1-1c-3.866 0-6-2.134-6-6z"/><g fill="#124235"><path d="M103 17l-15 3c-7 2-3 7 2 6l4-1c.28 2.365 4.476 3.646 7 3l2-1c.382 2.33 3 4 6 3 2-1 2.575-1.71 3-2-.425.29 9 5 9 5l-11-14c-2-2-4.924-2.32-7-2zM181.236 17l15 3c7 2 3 7-2 6l-4-1c-.28 2.365-4.476 3.646-7 3l-2-1c-.382 2.33-3 4-6 3-2-1-2.575-1.71-3-2 .425.29-9 5-9 5l11-14c2-2 4.924-2.32 7-2zM141 58v13.008c0 .55.444.992 1 .992.55 0 1-.448 1-.992V58h-2zm6-2v15.008c0 2.757-2.244 4.992-5 4.992-2.76 0-5-2.23-5-4.992V56h10zm-16-5.993c0 1.1.894 1.993 2 1.993h18c1.104 0 2-.894 2-1.993v-35c0-5.52-4.053-10.085-9.344-10.883-.762 6.51-6.05 11.642-12.656 12.304v33.58zM142 0c8.284 0 15 6.713 15 15.007v35c0 3.31-2.69 5.993-6 5.993h-18c-3.314 0-6-2.682-6-5.993V12.185c.815.206 1.67.315 2.55.315 5.633 0 10.2-4.477 10.2-10 0-.863-.112-1.7-.32-2.5H142z"/><path d="M153 13.007c0-3.15-2.21-6.753-4.958-8.25-.293-.16-.6-.31-.918-.45-1.142-.504-2.387-.86-3.635-1.092-.18.62-.365 1.234-.556 1.82-.377 1.16-.75 2.113-1.13 2.833l-.048.09c-1.26 2.308-2.808 3.9-5.682 5.73-.393.25-.803.48-1.227.69-1.237.617-2.543 1.047-3.847 1.33v19.285c0 1.11.896 2.007 2 2.007.992 0 1.833-.735 1.978-1.706v-.122c.003-.15.005-.363.007-.633l.005-.827.007-1.183.003-.528c0-2.21 1.784-4.002 4-4.002 2.21 0 4 1.794 4 4.002v3.314c.172.96 1.015 1.684 2 1.684 1.1 0 2-.9 2-2.007v-12.99c0-2.212 1.784-4.003 4-4.003.73 0 1.412.195 2 .536v-5.53zM136.344 37.19c-.63 1.192-1.948 1.81-3.344 1.81-2.21 0-4-1.793-4-4.007V14.007s3.228-.24 6-2.007c2.772-1.766 3.994-3.155 5-5 .994-1.822 2-6 2-6s3.725.214 7 2 6 6 6 10.007l-2 8.995c0-1.104-.895-2.002-2-2.002-1.112 0-2 .896-2 2.002v12.99c0 2.214-1.795 4.008-4 4.008-2.056 0-3.75-1.553-4-3.537v-3.46c0-1.105-.895-2.003-2-2.003-1.112 0-2 .896-2 2.002 0 0-.017 3.444-.026 3.447 0 0 0 .55-.63 1.74z"/></g><path fill="#288F73" d="M143 279c0-.552-.448-1-1-1s-1 .448-1 1c0 3.866-2.134 6-6 6-.552 0-1 .448-1 1s.448 1 1 1c3.866 0 6 2.134 6 6 0 .552.448 1 1 1s1-.448 1-1c0-3.866 3.134-6 7-6h-1c.552 0 1-.448 1-1s-.448-1-1-1c-3.866 0-6-2.134-6-6z"/></g></svg>