<svg xmlns="http://www.w3.org/2000/svg" viewBox="0 0 552 268" xmlns:xlink="http://www.w3.org/1999/xlink"><defs><path id="a" d="M58 0c8.284 0 15 6.713 15 15.007v35C73 53.317 70.31 56 67 56H49c-3.314 0-6-2.682-6-5.993V12.185c.815.206 1.67.315 2.55.315 5.633 0 10.2-4.477 10.2-10 0-.863-.112-1.7-.32-2.5H58z"/><mask id="c" width="30" height="56" x="0" y="0" fill="#fff"><use xlink:href="#a"/></mask><path id="b" d="M71 29.993V13.007C71 9 68.275 4.787 65 3c-3.275-1.786-7-2-7-2s-1.006 4.178-2 6c-1.006 1.845-2.228 3.234-5 5s-6 2.007-6 2.007v20.986C45 37.207 46.79 39 49 39c2.05 0 3.748-1.553 3.974-3.55C52.984 35.453 53 32 53 32c0-1.106.888-2.002 2-2.002 1.105 0 2 .898 2 2.002v3.46C57.25 37.448 58.944 39 61 39c2.205 0 4-1.794 4-4.007V22c0-1.106.888-2.002 2-2.002 1.105 0 2 .898 2 2.002v11.46c1.194-.692 2-1.986 2-3.47z"/><mask id="d" width="26" height="38" x="0" y="0" fill="#fff"><use xlink:href="#b"/></mask></defs><g fill="none" fill-rule="evenodd"><path fill="#288F73" d="M110 61c0-.552-.448-1-1-1s-1 .448-1 1c0 3.866-2.134 6-6 6-.552 0-1 .448-1 1s.448 1 1 1c3.866 0 6 2.134 6 6 0 .552.448 1 1 1s1-.448 1-1c0-3.866 3.134-6 7-6h-1c.552 0 1-.448 1-1s-.448-1-1-1c-3.866 0-6-2.134-6-6zm334 0c0-.552-.448-1-1-1s-1 .448-1 1c0 3.866-2.134 6-6 6-.552 0-1 .448-1 1s.448 1 1 1c3.866 0 6 2.134 6 6 0 .552.448 1 1 1s1-.448 1-1c0-3.866 3.134-6 7-6h-1c.552 0 1-.448 1-1s-.448-1-1-1c-3.866 0-6-2.134-6-6zM277 253c0-.552-.448-1-1-1s-1 .448-1 1c0 3.866-2.134 6-6 6-.552 0-1 .448-1 1s.448 1 1 1c3.866 0 6 2.134 6 6 0 .552.448 1 1 1s1-.448 1-1c0-3.866 3.134-6 7-6h-1c.552 0 1-.448 1-1s-.448-1-1-1c-3.866 0-6-2.134-6-6z"/><path fill="#124235" d="M30.048 95.424c2.592 0 4.704 1.824 2.976 6.528h-3.648c-.288 1.152-.576 2.688-.576 4.128 0 3.936 2.496 6.816 7.68 6.816 4.512 0 7.968-2.592 7.968-8.352 0-4.704-3.264-10.752-15.264-10.752-17.28 0-22.944 10.656-22.944 28.128v.384H.672v1.728H6.24v42.24H.96V168h34.848v-1.728H24.096v-42.24h12.672v-1.728H24.096v-15.36c0-7.296.768-11.52 5.952-11.52zm39.744 29.568c2.016 0 3.936.96 2.016 4.896h-3.456c-2.016 6.816 1.056 10.848 7.488 10.848 5.184 0 8.064-3.648 8.064-9.12 0-7.296-4.512-10.272-10.176-10.272-5.76 0-11.136 3.36-12.864 10.176v-9.216H37.728v1.728h5.28v42.24h-5.28V168H67.68v-1.728h-6.816v-25.728c0-8.64 4.32-15.552 8.928-15.552zm15.936 20.256c0 13.92 7.68 23.712 24.768 23.712 13.632 0 18.624-6.336 20.832-14.592l-1.728-.288c-2.112 7.392-6.912 11.904-14.016 11.904-9.312 0-11.328-7.68-11.328-19.008v-3.744h27.072c.576-14.304-5.856-21.888-20.928-21.888-13.344 0-24.672 7.296-24.672 23.904zm18.624-3.936v-4.704c0-10.176 1.824-13.44 5.184-13.44 3.936 0 4.704 3.36 4.704 13.44v4.704h-9.888zm32.64 27.648h1.152c1.536-2.688 2.88-3.552 4.128-3.552.384 0 1.248.384 1.824.768 3.648 1.824 6.912 2.784 11.52 2.784 10.848 0 17.952-5.472 17.952-16.416 0-11.328-8.448-14.4-16.032-16.416-6.336-1.728-12.096-2.784-12.096-7.2 0-2.976 2.592-5.568 8.928-5.568 6.816 0 11.712 3.648 15.168 12.48h1.152v-14.688h-1.056c-1.248 2.4-1.92 3.168-3.36 3.168-1.152 0-1.536-.288-2.688-.768-2.592-1.152-5.472-2.208-9.696-2.208-10.176 0-16.896 6.432-16.896 16.224 0 10.656 8.544 13.632 16.224 15.744 7.296 2.016 12 2.976 12 7.296 0 3.648-2.688 6.24-9.792 6.24-7.872 0-13.728-3.36-17.28-15.072h-1.152v17.184zM176.448 96v1.728h5.28v68.544h-5.28V168h27.264v-1.728h-4.128v-26.496c0-7.776 3.744-13.824 7.776-13.824 2.4 0 3.552.96 3.552 9.12v31.2h-3.936V168h27.168v-1.728h-5.376v-28.896c0-11.616-5.952-16.032-14.88-16.032-9.504 0-12.672 4.992-14.304 9.792V96h-23.136zm76.416 0v1.728h5.28v68.544h-5.28V168h27.264v-1.728H276v-26.496c0-7.776 3.744-13.824 7.776-13.824 2.4 0 3.552.96 3.552 9.12v31.2h-3.936V168h27.168v-1.728h-5.376v-28.896c0-11.616-5.952-16.032-14.88-16.032-9.504 0-12.672 4.992-14.304 9.792V96h-23.136zm59.616 49.248c0 13.92 7.68 23.712 24.768 23.712 13.632 0 18.624-6.336 20.832-14.592l-1.728-.288c-2.112 7.392-6.912 11.904-14.016 11.904-9.312 0-11.328-7.68-11.328-19.008v-3.744h27.072c.576-14.304-5.856-21.888-20.928-21.888-13.344 0-24.672 7.296-24.672 23.904zm18.624-3.936v-4.704c0-10.176 1.824-13.44 5.184-13.44 3.936 0 4.704 3.36 4.704 13.44v4.704h-9.888zm62.496-16.32c2.016 0 3.936.96 2.016 4.896h-3.456c-2.016 6.816 1.056 10.848 7.488 10.848 5.184 0 8.064-3.648 8.064-9.12 0-7.296-4.512-10.272-10.176-10.272-5.76 0-11.136 3.36-12.864 10.176v-9.216h-23.136v1.728h5.28v42.24h-5.28V168h29.952v-1.728h-6.816v-25.728c0-8.64 4.32-15.552 8.928-15.552zm46.464 24.096c0 12.48-.288 18.144-5.76 18.144-5.856 0-6.048-7.2-6.048-18.336v-7.488c0-10.848.288-18.336 6.144-18.336 5.376 0 5.664 7.488 5.664 17.856v8.16zm-30.24-3.744c0 14.976 8.16 23.616 24.288 23.616 17.088 0 24.384-8.736 24.384-24.48 0-15.552-7.68-23.136-23.808-23.136-15.456 0-24.864 8.256-24.864 24zm51.84-.096c0 13.92 7.68 23.712 24.768 23.712 13.632 0 18.624-6.336 20.832-14.592l-1.728-.288c-2.112 7.392-6.912 11.904-14.016 11.904-9.312 0-11.328-7.68-11.328-19.008v-3.744h27.072c.576-14.304-5.856-21.888-20.928-21.888-13.344 0-24.672 7.296-24.672 23.904zm18.624-3.936v-4.704c0-10.176 1.824-13.44 5.184-13.44 3.936 0 4.704 3.36 4.704 13.44v4.704h-9.888zm32.64 27.648h1.152c1.536-2.688 2.88-3.552 4.128-3.552.384 0 1.248.384 1.824.768 3.648 1.824 6.912 2.784 11.52 2.784 10.848 0 17.952-5.472 17.952-16.416 0-11.328-8.448-14.4-16.032-16.416-6.336-1.728-12.096-2.784-12.096-7.2 0-2.976 2.592-5.568 8.928-5.568 6.816 0 11.712 3.648 15.168 12.48h1.152v-14.688h-1.056c-1.248 2.4-1.92 3.168-3.36 3.168-1.152 0-1.536-.288-2.688-.768-2.592-1.152-5.472-2.208-9.696-2.208-10.176 0-16.896 6.432-16.896 16.224 0 10.656 8.544 13.632 16.224 15.744 7.296 2.016 12 2.976 12 7.296 0 3.648-2.688 6.24-9.792 6.24-7.872 0-13.728-3.36-17.28-15.072h-1.152v17.184z"/><g transform="translate(218)"><path fill="#124235" d="M19 17L4 20c-7 2-3 7 2 6l4-1c.28 2.365 4.476 3.646 7 3l2-1c.382 2.33 3 4 6 3 2-1 2.575-1.71 3-2-.425.29 9 5 9 5L26 19c-2-2-4.924-2.32-7-2zM97.236 17l15 3c7 2 3 7-2 6l-4-1c-.28 2.365-4.476 3.646-7 3l-2-1c-.382 2.33-3 4-6 3-2-1-2.575-1.71-3-2 .425.29-9 5-9 5l11-14c2-2 4.924-2.32 7-2zM57 58v13.008c0 .55.444.992 1 .992.55 0 1-.448 1-.992V58h-2zm6-2v15.008C63 73.765 60.756 76 58 76c-2.76 0-5-2.23-5-4.992V56h10z"/><use stroke="#124235" stroke-width="8" mask="url(#c)" xlink:href="#a"/><use stroke="#124235" stroke-width="4" mask="url(#d)" xlink:href="#b"/></g><path fill="#124235" d="M128.89 213.047c0-.453-.115-.81-.347-1.074-.232-.263-.647-.52-1.246-.77-1.167-.41-2.044-.877-2.633-1.398-.588-.52-.883-1.25-.883-2.188 0-.932.337-1.69 1.01-2.277.67-.586 1.528-.88 2.57-.88 1.104 0 1.992.313 2.663.938.672.625.998 1.464.977 2.516l-.016.047h-2.14c0-.588-.132-1.034-.395-1.34-.264-.304-.64-.456-1.13-.456-.422 0-.75.14-.984.418-.234.28-.352.626-.352 1.043 0 .385.133.703.4.953.264.25.72.524 1.366.82 1.1.365 1.93.826 2.496 1.383.565.56.848 1.31.848 2.25 0 .975-.33 1.74-.992 2.298-.662.557-1.54.836-2.633.836-1.08 0-2-.3-2.767-.902-.766-.602-1.135-1.517-1.11-2.746l.016-.047h2.148c0 .712.144 1.225.433 1.538.29.312.716.47 1.28.47.473 0 .828-.132 1.065-.392s.356-.607.356-1.04zm12.477-6.695h-2.672V216h-2.21v-9.648h-2.602v-1.727h7.484v1.727zm7.508 7.187h-2.844l-.64 2.46h-2.296l3.226-11.375h2.282L151.828 216h-2.305l-.648-2.46zm-2.39-1.735h1.937l-.945-3.61h-.047l-.946 3.61zm15.788 2.695c-.322.453-.79.844-1.402 1.172-.61.328-1.4.492-2.37.492-1.23 0-2.215-.358-2.957-1.074-.742-.716-1.113-1.733-1.113-3.05v-3.454c0-1.313.36-2.328 1.082-3.047.72-.72 1.675-1.08 2.863-1.08 1.24 0 2.174.294 2.805.88.63.586.935 1.42.914 2.504l-.016.047h-2.07c0-.593-.13-1.025-.39-1.296-.26-.27-.654-.406-1.18-.406-.568 0-1.01.197-1.33.593-.316.397-.475.993-.475 1.79v3.47c0 .812.16 1.416.484 1.812.323.395.784.593 1.383.593.427 0 .763-.05 1.008-.152s.432-.236.562-.402v-2.296h-1.734v-1.524h3.937v4.43zm9.266-3.523h-3.477v3.304h4.164V216h-6.368v-11.375h6.35v1.727h-4.148v2.906h3.477v1.72zm6.288.906V216h-2.203v-11.375h3.805c1.14 0 2.044.335 2.71 1.004.667.668 1 1.544 1 2.628 0 1.088-.333 1.965-1 2.63-.666.663-1.57.995-2.71.995h-1.602zm0-1.727h1.602c.494 0 .87-.177 1.13-.53.256-.355.385-.806.385-1.353 0-.557-.13-1.016-.386-1.378-.26-.362-.636-.543-1.13-.543h-1.602v3.804zm10.922 4.125h4.242V216h-6.445v-11.375h2.203v9.656zm13.242-3.303h-3.476v3.304h4.164V216h-6.368v-11.375h6.352v1.727h-4.148v2.906h3.476v1.72zm6.89.25h-.6V216h-2.204v-11.375h2.203v4.656h.454l2.414-4.655h2.735l-3.28 5.195 3.522 6.18h-2.813l-2.43-4.773zm17.11 1.867l.094.476h.047l.094-.453 1.968-8.492h2.32L227.26 216h-2.29l-3.24-11.375h2.32l1.944 8.47zm15.43-1.188c0 1.34-.378 2.383-1.133 3.133-.756.75-1.76 1.124-3.017 1.124-1.255 0-2.257-.375-3.007-1.125s-1.125-1.795-1.125-3.134v-3.172c0-1.333.374-2.38 1.122-3.136.747-.758 1.748-1.137 3.004-1.137 1.255 0 2.26.38 3.02 1.138.757.757 1.136 1.803 1.136 3.136v3.172zm-2.195-3.195c0-.827-.168-1.452-.504-1.874-.336-.422-.822-.633-1.457-.633-.64 0-1.123.21-1.446.63-.323.418-.484 1.045-.484 1.878v3.196c0 .844.163 1.477.488 1.9.326.42.81.63 1.45.63.64 0 1.126-.21 1.456-.63.33-.423.497-1.056.497-1.9v-3.195zm13.804 3.196c0 1.34-.376 2.383-1.132 3.133-.755.75-1.76 1.124-3.015 1.124-1.255 0-2.258-.375-3.008-1.125s-1.125-1.795-1.125-3.134v-3.172c0-1.333.374-2.38 1.12-3.136.748-.758 1.75-1.137 3.005-1.137s2.262.38 3.02 1.138c.757.757 1.136 1.803 1.136 3.136v3.172zm-2.194-3.195c0-.827-.168-1.452-.504-1.874-.336-.422-.822-.633-1.457-.633-.64 0-1.122.21-1.445.63-.323.418-.485 1.045-.485 1.878v3.196c0 .844.163 1.477.49 1.9.324.42.807.63 1.448.63.64 0 1.126-.21 1.457-.63.33-.423.496-1.056.496-1.9v-3.195zm7.937 2.727V216h-2.203v-11.367h3.407c1.13 0 2.02.294 2.668.883.648.588.972 1.408.972 2.46 0 .59-.137 1.1-.41 1.532-.273.432-.668.776-1.184 1.03.594.2 1.02.527 1.282.985.26.46.39 1.032.39 1.72v.827c0 .318.037.65.11 1 .073.35.203.604.39.766V216h-2.28c-.183-.167-.3-.44-.35-.816-.048-.378-.073-.754-.073-1.13v-.796c0-.578-.12-1.026-.36-1.344-.24-.318-.583-.476-1.03-.476h-1.33zm0-1.718h1.188c.475 0 .836-.143 1.083-.427.247-.284.37-.686.37-1.207 0-.53-.12-.953-.366-1.266-.245-.312-.602-.468-1.07-.468h-1.204v3.367zm21.618 2.75l.016.046c.02 1.218-.29 2.13-.933 2.738-.644.607-1.562.91-2.754.91-1.225 0-2.197-.36-2.915-1.082-.72-.72-1.078-1.746-1.078-3.074v-3.375c0-1.323.347-2.35 1.043-3.078.695-.73 1.634-1.094 2.816-1.094 1.245 0 2.2.303 2.867.907.667.604.99 1.518.97 2.742l-.017.046h-2.14c0-.73-.13-1.24-.387-1.53-.26-.293-.69-.44-1.294-.44-.552 0-.966.2-1.242.6-.276.398-.414 1.008-.414 1.83v3.392c0 .828.148 1.44.445 1.84.297.398.745.597 1.344.597.546 0 .94-.144 1.178-.433.24-.29.36-.804.36-1.543h2.133zm5.602-1.032V216h-2.203v-11.367h3.405c1.13 0 2.02.294 2.668.883.65.588.973 1.408.973 2.46 0 .59-.137 1.1-.41 1.532-.274.432-.668.776-1.184 1.03.594.2 1.02.527 1.28.985.262.46.392 1.032.392 1.72v.827c0 .318.037.65.11 1 .072.35.203.604.39.766V216h-2.28c-.183-.167-.3-.44-.35-.816-.048-.378-.073-.754-.073-1.13v-.796c0-.578-.12-1.026-.358-1.344-.24-.318-.584-.476-1.032-.476h-1.328zm0-1.72h1.188c.474 0 .834-.14 1.082-.425.247-.284.37-.686.37-1.207 0-.53-.122-.953-.366-1.266-.245-.312-.602-.468-1.07-.468h-1.204v3.367zm14.305 1.26h-3.477v3.303h4.164V216h-6.367v-11.375h6.352v1.727h-4.15v2.906h3.477v1.72zm9.133 2.56h-2.844l-.64 2.462h-2.298l3.227-11.375h2.28L312.384 216h-2.305l-.648-2.46zm-2.39-1.733h1.937l-.946-3.61h-.046l-.945 3.61zm14.093-5.453h-2.672V216h-2.21v-9.648h-2.602v-1.727h7.485v1.727zM326.53 216h-2.194v-11.375h2.195V216zm9.564-5.023h-3.477v3.304h4.164V216h-6.366v-11.375h6.352v1.727h-4.15v2.906h3.478v1.72zm7.54 2.117l.093.476h.046l.094-.453 1.97-8.492h2.32L344.896 216h-2.288l-3.243-11.375h2.32l1.946 8.47zm13.14-2.117h-3.477v3.304h4.164V216h-6.366v-11.375h6.35v1.727h-4.147v2.906h3.476v1.72zm13.078 2.117l.093.476h.047l.094-.453 1.97-8.492h2.32L371.115 216h-2.288l-3.242-11.375h2.32l1.946 8.47zm15.43-1.188c0 1.34-.378 2.383-1.134 3.133-.755.75-1.76 1.124-3.015 1.124-1.255 0-2.258-.375-3.008-1.125S377 213.244 377 211.905v-3.172c0-1.333.374-2.38 1.12-3.136.748-.758 1.75-1.137 3.005-1.137s2.262.38 3.02 1.138c.757.757 1.136 1.803 1.136 3.136v3.172zm-2.196-3.195c0-.827-.168-1.452-.504-1.874-.336-.422-.822-.633-1.457-.633-.64 0-1.122.21-1.445.63-.323.418-.485 1.045-.485 1.878v3.196c0 .844.163 1.477.49 1.9.324.42.807.63 1.448.63.64 0 1.126-.21 1.457-.63.33-.423.496-1.056.496-1.9v-3.195zm13.35 5.79c-.32.453-.79.844-1.4 1.172-.613.328-1.403.492-2.372.492-1.23 0-2.215-.358-2.957-1.074-.742-.716-1.113-1.733-1.113-3.05v-3.454c0-1.313.36-2.328 1.082-3.047.72-.72 1.676-1.08 2.863-1.08 1.24 0 2.174.294 2.804.88.63.586.935 1.42.914 2.504l-.016.047h-2.07c0-.593-.13-1.025-.39-1.296-.26-.27-.654-.406-1.18-.406-.568 0-1.01.197-1.33.593-.316.397-.475.993-.475 1.79v3.47c0 .812.16 1.416.484 1.812.324.395.785.593 1.384.593.427 0 .763-.05 1.008-.152s.432-.236.562-.402v-2.296H392.5v-1.524h3.938v4.43zm9.267-3.523h-3.476v3.304h4.164V216h-6.367v-11.375h6.352v1.727h-4.148v2.906h3.476v1.72zm6.29 3.304h4.24V216h-6.444v-11.375h2.202v9.656zm12.577-1.233c0-.453-.116-.81-.347-1.074-.232-.263-.647-.52-1.246-.77-1.167-.41-2.045-.877-2.633-1.398-.59-.52-.883-1.25-.883-2.188 0-.932.337-1.69 1.01-2.277.67-.586 1.527-.88 2.57-.88 1.103 0 1.99.313 2.663.938.672.625.998 1.464.977 2.516l-.016.047h-2.14c0-.588-.132-1.034-.395-1.34-.264-.304-.64-.456-1.13-.456-.422 0-.75.14-.984.418-.235.28-.352.626-.352 1.043 0 .385.133.703.4.953.264.25.72.524 1.366.82 1.1.365 1.93.826 2.496 1.383.565.56.847 1.31.847 2.25 0 .975-.33 1.74-.992 2.298-.66.557-1.538.836-2.632.836-1.078 0-2-.3-2.765-.902-.766-.602-1.136-1.517-1.11-2.746l.016-.047h2.147c0 .712.145 1.225.434 1.538.29.312.716.47 1.278.47.474 0 .83-.132 1.067-.392s.355-.607.355-1.04z"/><g fill="#124235"><path d="M481 212h-24c-.185 0-2 0-2-2s1.815-2 2-2h24l4 2-4 2zm10-2l-9-6h-25s-6 0-6 6 6 6 6 6h25l9-6z"/><path d="M481 212h-2v-4h2M459 212h-2v-4h2M479 209v2h-20v-2"/></g><g fill="#124235"><path d="M67 212v-4h28v4H67zm32 1.99v-7.98c0-1.11-.89-2.01-2-2.01H65c-1.105 0-2 .902-2 2.01v7.98c0 1.11.89 2.01 2 2.01h32c1.105 0 2-.902 2-2.01z"/><path d="M72 211h-2v-3h2M76 210h-2v-2h2M84 211h-2v-3h2M80 210h-2v-2h2M88 210h-2v-2h2M92 210h-2v-2h2"/></g><path fill="#124235" d="M185.44 52.154h-2.13L182.827 54h-1.723l2.42-8.53h1.71l2.42 8.53h-1.727l-.487-1.846zm-1.792-1.3h1.454l-.71-2.708h-.035l-.71 2.708zm9.397.943h.035l1.6-6.328h2.162V54h-1.64v-5.373l-.036-.006-1.54 5.38h-1.108l-1.53-5.338-.035.006V54h-1.646v-8.53h2.15l1.588 6.327zm9.842-.012c0-.34-.087-.608-.26-.806-.175-.198-.486-.39-.936-.578-.874-.308-1.532-.658-1.973-1.048-.442-.39-.662-.938-.662-1.64 0-.7.252-1.27.756-1.71.504-.44 1.147-.658 1.928-.658.828 0 1.494.234 1.998.703.504.468.748 1.096.733 1.886l-.013.035h-1.605c0-.44-.1-.776-.296-1.004-.198-.23-.48-.343-.847-.343-.317 0-.564.105-.74.314-.175.21-.263.47-.263.782 0 .288.1.526.3.714.198.187.54.392 1.024.615.825.272 1.45.618 1.873 1.036.424.418.636.98.636 1.687 0 .73-.25 1.305-.745 1.723-.496.418-1.154.627-1.975.627-.808 0-1.5-.226-2.074-.677-.574-.45-.85-1.137-.832-2.06l.012-.034h1.61c0 .535.11.92.326 1.154.217.234.536.35.958.35.356 0 .622-.096.8-.292.178-.195.267-.455.267-.78zM351.847 54h-5.226v-1.102l2.362-2.982c.336-.453.578-.844.724-1.172.147-.328.22-.627.22-.896 0-.37-.072-.665-.214-.882-.143-.217-.362-.325-.66-.325-.308 0-.545.138-.71.414-.167.275-.25.628-.25 1.057h-1.623l-.02-.034c-.014-.762.216-1.407.693-1.936.476-.53 1.113-.794 1.91-.794.808 0 1.434.223 1.878.67.444.448.666 1.056.666 1.826 0 .52-.128.998-.384 1.435-.256.438-.685 1.022-1.286 1.752l-1.16 1.68h3.082V54zm7.23-3.094c0 1.004-.24 1.79-.722 2.362-.48.57-1.113.855-1.898.855-.797 0-1.436-.285-1.92-.855-.48-.57-.723-1.358-.723-2.362v-2.338c0-.996.24-1.782.72-2.358.482-.576 1.118-.864 1.91-.864.79 0 1.426.288 1.91.864.48.576.722 1.362.722 2.358v2.338zm-1.66-2.484c0-.563-.086-1-.26-1.313-.174-.313-.41-.47-.712-.47-.308 0-.548.157-.717.47-.17.312-.255.75-.255 1.312v2.62c0 .573.086 1.016.257 1.326.172.31.415.466.727.466.3 0 .536-.155.706-.466.17-.31.255-.753.255-1.327v-2.618zM364.935 54h-1.66v-7.096l-1.557.04v-1.27l3.217-.328V54zm6.56-8.654c.3 0 .575.03.823.09s.5.152.76.273l-.288 1.224c-.228-.09-.436-.158-.625-.203-.19-.043-.41-.066-.66-.066-.437 0-.79.19-1.06.57-.27.382-.404.92-.404 1.616v.257c.2-.214.44-.38.72-.498.278-.118.592-.176.94-.176.655 0 1.165.26 1.53.78.362.518.543 1.2.543 2.044 0 .844-.243 1.532-.73 2.065-.485.533-1.117.8-1.895.8-.816 0-1.48-.303-1.992-.908-.51-.606-.767-1.434-.767-2.485v-1.845c0-1.078.29-1.938.872-2.578.582-.64 1.326-.96 2.232-.96zm-.357 4.36c-.258 0-.48.045-.662.137-.184.092-.33.22-.434.384v.527c0 .66.102 1.172.303 1.535.2.362.47.544.805.544.293 0 .528-.15.704-.45.175-.302.263-.677.263-1.126 0-.485-.09-.864-.266-1.14-.18-.275-.416-.413-.713-.413z"/></g></svg>