<?xml version="1.0" standalone="no"?>
<!DOCTYPE svg PUBLIC "-//W3C//DTD SVG 20010904//EN"
 "http://www.w3.org/TR/2001/REC-SVG-20010904/DTD/svg10.dtd">
<svg version="1.0" xmlns="http://www.w3.org/2000/svg"
 width="16.000000pt" height="16.000000pt" viewBox="0 0 16.000000 16.000000"
 preserveAspectRatio="xMidYMid meet">
<metadata>
Created by potrace 1.11, written by Peter Selinger 2001-2013
</metadata>
<g transform="translate(0.000000,16.000000) scale(0.002286,-0.002286)"
fill="#000000" stroke="none">
<path d="M3617 5745 c-521 -76 -846 -341 -1005 -821 -34 -102 -75 -286 -91
-414 -8 -66 -30 -404 -31 -477 0 -9 -43 -13 -167 -15 l-168 -3 -3 -52 -3 -53
170 0 171 0 0 -1295 0 -1295 -160 0 -160 0 0 -55 0 -55 1070 0 1070 0 0 55 0
55 -360 0 -360 0 0 1295 0 1295 391 0 390 0 -3 53 -3 52 -388 3 -389 2 5 613
c5 648 7 673 56 819 41 122 128 191 259 204 114 12 214 -34 247 -113 20 -46
19 -138 -1 -218 l-16 -65 -113 0 -113 0 -12 -52 c-19 -84 -24 -243 -10 -306
42 -195 213 -312 455 -312 293 0 471 166 492 459 8 115 -9 203 -58 310 -31 67
-54 98 -116 161 -66 65 -94 85 -183 128 -119 56 -182 75 -325 97 -121 18 -412
18 -538 0z"/>
</g>
</svg>
